<?xml-stylesheet href="../../css/fonts/fonts.css" type="text/css"?><svg xmlns="http://www.w3.org/2000/svg" xmlns:svg="http://www.w3.org/2000/svg" id="svg2" display="inline" preserveAspectRatio="xMinYMin meet" version="1.1" viewBox="0 0 439 302"><defs id="defs4"><marker id="Arrow1Mend" orient="auto" overflow="visible" refX="0" refY="0"><path id="path4415" fill="#383838" fill-rule="evenodd" stroke="#383838" stroke-width="1pt" marker-start="none" d="M 0,0 5,-5 -12.5,0 5,5 0,0 z" transform="matrix(-0.4,0,0,-0.4,-4,0)"/></marker><marker id="Arrow1Mend-7" orient="auto" overflow="visible" refX="0" refY="0"><path id="path4415-2" fill="#383838" fill-rule="evenodd" stroke="#383838" stroke-width="1pt" marker-start="none" d="M 0,0 5,-5 -12.5,0 5,5 0,0 z" transform="matrix(-0.4,0,0,-0.4,-4,0)"/></marker><marker id="Arrow1Mend-4" orient="auto" overflow="visible" refX="0" refY="0"><path id="path4415-9" fill="#383838" fill-rule="evenodd" stroke="#383838" stroke-width="1pt" marker-start="none" d="M 0,0 5,-5 -12.5,0 5,5 0,0 z" transform="matrix(-0.4,0,0,-0.4,-4,0)"/></marker><marker id="Arrow1Mend-1" orient="auto" overflow="visible" refX="0" refY="0"><path id="path4415-23" fill="#383838" fill-rule="evenodd" stroke="#383838" stroke-width="1pt" marker-start="none" d="M 0,0 5,-5 -12.5,0 5,5 0,0 z" transform="matrix(-0.4,0,0,-0.4,-4,0)"/></marker><marker id="Arrow1Mend-9" orient="auto" overflow="visible" refX="0" refY="0"><path id="path4415-4" fill="#383838" fill-rule="evenodd" stroke="#383838" stroke-width="1pt" marker-start="none" d="M 0,0 5,-5 -12.5,0 5,5 0,0 z" transform="matrix(-0.4,0,0,-0.4,-4,0)"/></marker><marker id="Arrow1Mend-93" orient="auto" overflow="visible" refX="0" refY="0"><path id="path4415-7" fill="#383838" fill-rule="evenodd" stroke="#383838" stroke-width="1pt" marker-start="none" d="M 0,0 5,-5 -12.5,0 5,5 0,0 z" transform="matrix(-0.4,0,0,-0.4,-4,0)"/></marker><marker id="Arrow1Mend-2" orient="auto" overflow="visible" refX="0" refY="0"><path id="path4415-97" fill="#383838" fill-rule="evenodd" stroke="#383838" stroke-width="1pt" marker-start="none" d="M 0,0 5,-5 -12.5,0 5,5 0,0 z" transform="matrix(-0.4,0,0,-0.4,-4,0)"/></marker><marker id="Arrow1Mend-48" orient="auto" overflow="visible" refX="0" refY="0"><path id="path4415-22" fill="#383838" fill-rule="evenodd" stroke="#383838" stroke-width="1pt" marker-start="none" d="M 0,0 5,-5 -12.5,0 5,5 0,0 z" transform="matrix(-0.4,0,0,-0.4,-4,0)"/></marker><marker id="Arrow1Mend-90" orient="auto" overflow="visible" refX="0" refY="0"><path id="path4415-1" fill="#383838" fill-rule="evenodd" stroke="#383838" stroke-width="1pt" marker-start="none" d="M 0,0 5,-5 -12.5,0 5,5 0,0 z" transform="matrix(-0.4,0,0,-0.4,-4,0)"/></marker></defs><metadata id="metadata_5.1"/><g id="layer2" display="inline" transform="translate(-106.71875,-68.698303)"><path id="path4116" fill="none" stroke="#383838" stroke-dasharray="none" stroke-linecap="round" stroke-linejoin="round" stroke-miterlimit="4" stroke-opacity="1" stroke-width="1.015" d="M 261.94687,106.59686 275.44621,93.097511"/><path id="path4118" fill="none" stroke="#383838" stroke-dasharray="none" stroke-linecap="round" stroke-linejoin="round" stroke-miterlimit="4" stroke-opacity="1" stroke-width="1.015" d="M 275.44621,106.59686 261.94687,93.097511"/><path id="path4086-0" fill="none" stroke="#383838" stroke-dasharray="none" stroke-dashoffset="0" stroke-linecap="round" stroke-linejoin="round" stroke-miterlimit="4" stroke-opacity="1" stroke-width=".531" d="m 210,87.362183 a 5,5 0 1 1 -10,0 5,5 0 1 1 10,0 z" transform="matrix(-1.3499345,-1.3499345,1.3499345,-1.3499345,427.49988,494.51698)"/><path id="path4116-8" fill="none" stroke="#383838" stroke-dasharray="none" stroke-linecap="round" stroke-linejoin="round" stroke-miterlimit="4" stroke-opacity="1" stroke-width="1.015" d="m 389.85627,175.18864 13.49935,13.49935"/><path id="path4118-6" fill="none" stroke="#383838" stroke-dasharray="none" stroke-linecap="round" stroke-linejoin="round" stroke-miterlimit="4" stroke-opacity="1" stroke-width="1.015" d="m 389.85627,188.68799 13.49935,-13.49935"/><path id="path4086-0-9" fill="none" stroke="#383838" stroke-dasharray="none" stroke-dashoffset="0" stroke-linecap="round" stroke-linejoin="round" stroke-miterlimit="4" stroke-opacity="1" stroke-width=".531" d="m 210,87.362183 a 5,5 0 1 1 -10,0 5,5 0 1 1 10,0 z" transform="matrix(1.3499345,-1.3499345,1.3499345,1.3499345,1.936152,340.74166)"/><path id="path4116-0" fill="none" stroke="#383838" stroke-dasharray="none" stroke-linecap="round" stroke-linejoin="round" stroke-miterlimit="4" stroke-opacity="1" stroke-width="1.015" d="M 261.09455,278.41547 274.5939,264.91612"/><path id="path4118-3" fill="none" stroke="#383838" stroke-dasharray="none" stroke-linecap="round" stroke-linejoin="round" stroke-miterlimit="4" stroke-opacity="1" stroke-width="1.015" d="M 274.5939,278.41547 261.09455,264.91612"/><path id="path4086-0-97" fill="none" stroke="#383838" stroke-dasharray="none" stroke-dashoffset="0" stroke-linecap="round" stroke-linejoin="round" stroke-miterlimit="4" stroke-opacity="1" stroke-width=".531" d="m 210,87.362183 a 5,5 0 1 1 -10,0 5,5 0 1 1 10,0 z" transform="matrix(-1.3499345,-1.3499345,1.3499345,-1.3499345,426.64756,666.33559)"/><rect id="rect6788-7-2-7-4-3" width="95.455" height="57.273" x="110.242" y="71.211" fill="#e8e8e8" fill-opacity="1" stroke="#383838" stroke-dasharray="none" stroke-dashoffset="0" stroke-linecap="round" stroke-linejoin="round" stroke-miterlimit="4" stroke-opacity="1" stroke-width="1.015" display="inline" rx="6.765" ry="6.765"/><rect id="rect6788-7-2-7-4-3-6" width="95.455" height="57.273" x="329.788" y="71.211" fill="#e8e8e8" fill-opacity="1" stroke="#383838" stroke-dasharray="none" stroke-dashoffset="0" stroke-linecap="round" stroke-linejoin="round" stroke-miterlimit="4" stroke-opacity="1" stroke-width="1.015" display="inline" rx="6.765" ry="6.765"/><path id="path8845-6-0-7-0" fill="none" stroke="#383838" stroke-dasharray="none" stroke-linecap="butt" stroke-linejoin="round" stroke-miterlimit="4" stroke-opacity="1" stroke-width="1.488" marker-end="url(#Arrow1Mend)" d="m 511.15168,184.87013 0,-53.65308"/><path id="path8845-6-0-7-0-4" fill="none" stroke="#383838" stroke-dasharray="none" stroke-linecap="butt" stroke-linejoin="round" stroke-miterlimit="4" stroke-opacity="1" stroke-width="1.488" marker-end="url(#Arrow1Mend)" d="m 259.15105,99.847195 -50.3183,0"/><path id="path4298" fill="none" stroke="#383838" stroke-dasharray="none" stroke-linecap="butt" stroke-linejoin="round" stroke-miterlimit="4" stroke-opacity="1" stroke-width="1.488" d="m 278.24201,99.847195 51.54558,0"/><path id="path8845-6-0-7-0-4-7" fill="none" stroke="#383838" stroke-dasharray="none" stroke-linecap="butt" stroke-linejoin="round" stroke-miterlimit="4" stroke-opacity="1" stroke-width="1.488" marker-end="url(#Arrow1Mend)" d="m 396.60594,172.39283 0,-41.05525"/><path id="path4298-8" fill="none" stroke="#383838" stroke-dasharray="none" stroke-linecap="butt" stroke-linejoin="round" stroke-miterlimit="4" stroke-opacity="1" stroke-width="1.488" d="m 267.84421,243.02937 0,19.09096"/><path id="path8845-6-0-7-0-4-7-6" fill="none" stroke="#383838" stroke-dasharray="none" stroke-linecap="butt" stroke-linejoin="round" stroke-miterlimit="4" stroke-opacity="1" stroke-width="1.488" marker-end="url(#Arrow1Mend)" d="m 267.84421,281.21128 0,25.78249"/><path id="path8845-1-4-88" fill="none" stroke="#383838" stroke-dasharray="none" stroke-linecap="butt" stroke-linejoin="round" stroke-miterlimit="4" stroke-opacity="1" stroke-width="1.488" marker-end="none" d="m 396.60594,191.48379 0,137.45488 c 0,5.72729 -3.81819,9.54548 -9.54548,9.54548 l -71.11866,8e-5"/><path id="path8845-1-0" fill="none" stroke="#383838" stroke-dasharray="none" stroke-linecap="butt" stroke-linejoin="round" stroke-miterlimit="4" stroke-opacity="1" stroke-width="1.488" marker-end="url(#Arrow1Mend)" d="m 157.96898,128.48363 0,19.09096 c 0,5.72728 3.81819,9.54548 9.54548,9.54548 l 57.27287,0 c 5.72729,0 9.54548,3.81819 9.54548,9.54547 l 0,16.11647"/><path id="path8845-1-0-3" fill="none" stroke="#383838" stroke-dasharray="none" stroke-linecap="butt" stroke-linejoin="round" stroke-miterlimit="4" stroke-opacity="1" stroke-width="1.488" marker-end="url(#Arrow1Mend)" d="m 358.42403,128.48363 0,19.09096 c 0,5.72728 -3.8182,9.54548 -9.54548,9.54548 l -38.18192,0 c -5.72728,0 -9.54547,3.81819 -9.54547,9.54547 l 0,16.11647"/><path id="path8845-6-0-7-0-4-7-9" fill="none" stroke="#383838" stroke-dasharray="none" stroke-linecap="butt" stroke-linejoin="round" stroke-miterlimit="4" stroke-opacity="1" stroke-width="1.488" marker-end="url(#Arrow1Mend)" d="m 425.24237,99.847195 54.41893,0"/><path id="rect6788-7-2-7-4-3-4-8" fill="none" stroke="#383838" stroke-dasharray="none" stroke-dashoffset="0" stroke-linecap="round" stroke-linejoin="round" stroke-miterlimit="4" stroke-opacity="1" stroke-width="1.015" d="m 218.35625,185.7565 99.27298,0 c 5.72729,0 7.70858,5.47992 5.72729,9.54548 l -19.96283,40.96289 c -1.64174,3.36881 -4.85542,6.7645 -10.5827,6.7645 l -49.63649,0 c -5.72729,0 -8.94096,-3.39569 -10.58271,-6.7645 l -19.96282,-40.96289 c -1.9813,-4.06555 0,-9.54548 5.72728,-9.54548 z" display="inline"/><rect id="rect6788-7-2-7-4-3-4" width="95.455" height="57.273" x="220.117" y="309.848" fill="#e8e8e8" fill-opacity="1" stroke="#383838" stroke-dasharray="none" stroke-dashoffset="0" stroke-linecap="round" stroke-linejoin="round" stroke-miterlimit="4" stroke-opacity="1" stroke-width="1.015" display="inline" rx="6.765" ry="6.765"/><path id="rect6788-7-2-7-4-3-4-8-3" fill="none" stroke="#383838" stroke-dasharray="none" stroke-dashoffset="0" stroke-linecap="round" stroke-linejoin="round" stroke-miterlimit="4" stroke-opacity="1" stroke-width="1.015" d="m 488.24253,243.02937 45.8183,0 c 5.72728,0 8.74022,-3.77069 5.72728,-9.54548 l -22.90914,-43.9092 c -2.99387,-5.72729 -8.41982,-5.66702 -11.45458,0 l -22.90915,43.9092 c -3.01293,5.77479 0,9.54548 5.72729,9.54548 z" display="inline"/><path id="path4082" fill="none" stroke="#383838" stroke-dasharray="none" stroke-dashoffset="0" stroke-linecap="round" stroke-linejoin="round" stroke-miterlimit="4" stroke-opacity="1" stroke-width=".531" d="m 310,72.362183 a 15,15 0 1 1 -30,0 15,15 0 1 1 30,0 z" display="inline" transform="matrix(1.9090957,0,0,1.9090957,-52.031541,-38.29913)"/></g><g id="layer3" display="inline" transform="translate(-106.71875,-68.698303)"><text font-stretch="normal" style="text-align:center;line-height:125%;-inkscape-font-specification:Sans" id="text6689-7-1" x="157.969" y="106.621" fill="#383838" fill-opacity="1" stroke="none" font-family="Inconsolata LGC" font-size="20" font-style="normal" font-variant="normal" font-weight="normal" letter-spacing="0" text-anchor="middle" word-spacing="0" xml:space="preserve"><tspan id="tspan6691-7-5" x="157.969" y="106.621">a</tspan></text><text font-stretch="normal" style="text-align:center;line-height:125%;-inkscape-font-specification:Sans" id="text6689-7-1-5" x="377.515" y="106.621" fill="#383838" fill-opacity="1" stroke="none" font-family="Inconsolata LGC" font-size="20" font-style="normal" font-variant="normal" font-weight="normal" letter-spacing="0" text-anchor="middle" word-spacing="0" xml:space="preserve"><tspan id="tspan6691-7-5-7" x="377.515" y="106.621">b</tspan></text><text font-stretch="normal" style="text-align:center;line-height:125%;-inkscape-font-specification:Sans" id="text6689-7-1-3" x="267.844" y="345.94" fill="#383838" fill-opacity="1" stroke="none" font-family="Inconsolata LGC" font-size="20" font-style="normal" font-variant="normal" font-weight="normal" letter-spacing="0" text-anchor="middle" word-spacing="0" xml:space="preserve"><tspan id="tspan6691-7-5-6" x="267.844" y="345.94">t</tspan></text><text font-stretch="normal" style="text-align:center;line-height:125%;-inkscape-font-specification:Sans" id="text6689-7-1-3-1" x="267.993" y="220.485" fill="#383838" fill-opacity="1" stroke="none" font-family="Inconsolata LGC" font-size="20" font-style="normal" font-variant="normal" font-weight="normal" letter-spacing="0" text-anchor="middle" word-spacing="0" xml:space="preserve"><tspan id="tspan6691-7-5-6-0" x="267.993" y="220.485">rem</tspan></text><text font-stretch="normal" style="text-align:center;line-height:125%;-inkscape-font-specification:Inconsolata LGC" id="text4630" x="268.697" y="132.302" fill="#383838" fill-opacity="1" stroke="none" font-family="Inconsolata LGC" font-size="20" font-style="normal" font-variant="normal" font-weight="normal" letter-spacing="0" text-anchor="middle" word-spacing="0" xml:space="preserve"><tspan id="tspan4632" x="268.697" y="132.302" dx="0 3.818 3.818">a←b</tspan></text><text font-stretch="normal" style="text-align:start;line-height:125%;-inkscape-font-specification:Inconsolata LGC" id="text4634" x="288.64" y="277.393" fill="#383838" fill-opacity="1" stroke="none" font-family="Inconsolata LGC" font-size="20" font-style="normal" font-variant="normal" font-weight="normal" letter-spacing="0" text-anchor="start" word-spacing="0" xml:space="preserve"><tspan id="tspan4636" x="288.64" y="277.393" dx="0 3.818 3.818">t←r</tspan></text><text font-stretch="normal" style="text-align:start;line-height:125%;-inkscape-font-specification:Inconsolata LGC" id="text4638" x="417.606" y="187.666" fill="#383838" fill-opacity="1" stroke="none" font-family="Inconsolata LGC" font-size="20" font-style="normal" font-variant="normal" font-weight="normal" letter-spacing="0" text-anchor="start" word-spacing="0" xml:space="preserve"><tspan id="tspan4640" x="417.606" y="187.666" dx="0 3.818 3.818">b←t</tspan></text><text font-stretch="normal" style="text-align:center;line-height:125%;-inkscape-font-specification:Inconsolata LGC" id="text4051" x="511.152" y="229.666" fill="#383838" fill-opacity="1" stroke="none" display="inline" font-family="Inconsolata LGC" font-size="20" font-style="normal" font-variant="normal" font-weight="normal" letter-spacing="0" text-anchor="middle" word-spacing="0" xml:space="preserve"><tspan id="tspan4053" x="511.152" y="229.666">0</tspan></text><text font-stretch="normal" style="text-align:center;line-height:125%;-inkscape-font-specification:Inconsolata LGC" id="text4171" x="511.152" y="106.665" fill="#383838" fill-opacity="1" stroke="none" display="inline" font-family="Inconsolata LGC" font-size="20" font-style="normal" font-variant="normal" font-weight="normal" letter-spacing="0" text-anchor="middle" word-spacing="0" xml:space="preserve"><tspan id="tspan4173" x="511.152" y="106.665">=</tspan></text></g></svg>