<?xml-stylesheet href="../../css/fonts/fonts.css" type="text/css"?><svg xmlns="http://www.w3.org/2000/svg" xmlns:svg="http://www.w3.org/2000/svg" id="svg5835" preserveAspectRatio="xMinYMin meet" version="1.1" viewBox="0 0 510 819"><defs id="defs5837"><marker id="Arrow1Mend" orient="auto" overflow="visible" refX="0" refY="0"><path id="path4415" fill="#383838" fill-rule="evenodd" stroke="#383838" stroke-width="1pt" marker-start="none" d="M 0,0 5,-5 -12.5,0 5,5 0,0 z" transform="matrix(-0.4,0,0,-0.4,-4,0)"/></marker><marker id="marker6610" orient="auto" overflow="visible" refX="0" refY="0"><path id="path6612" fill="#383838" fill-rule="evenodd" stroke="#383838" stroke-width="1pt" marker-start="none" d="M 0,0 5,-5 -12.5,0 5,5 0,0 z" transform="matrix(-0.4,0,0,-0.4,-4,0)"/></marker><marker id="Arrow1Mend-2" orient="auto" overflow="visible" refX="0" refY="0"><path id="path4415-6" fill="#383838" fill-rule="evenodd" stroke="#383838" stroke-width="1pt" marker-start="none" d="M 0,0 5,-5 -12.5,0 5,5 0,0 z" transform="matrix(-0.4,0,0,-0.4,-4,0)"/></marker><marker id="Arrow1Mend-4" orient="auto" overflow="visible" refX="0" refY="0"><path id="path4415-0" fill="#383838" fill-rule="evenodd" stroke="#383838" stroke-width="1pt" marker-start="none" d="M 0,0 5,-5 -12.5,0 5,5 0,0 z" transform="matrix(-0.4,0,0,-0.4,-4,0)"/></marker><marker id="Arrow1Mend-8" orient="auto" overflow="visible" refX="0" refY="0"><path id="path4415-8" fill="#383838" fill-rule="evenodd" stroke="#383838" stroke-width="1pt" marker-start="none" d="M 0,0 5,-5 -12.5,0 5,5 0,0 z" transform="matrix(-0.4,0,0,-0.4,-4,0)"/></marker><marker id="Arrow1Mend-23" orient="auto" overflow="visible" refX="0" refY="0"><path id="path4415-4" fill="#383838" fill-rule="evenodd" stroke="#383838" stroke-width="1pt" marker-start="none" d="M 0,0 5,-5 -12.5,0 5,5 0,0 z" transform="matrix(-0.4,0,0,-0.4,-4,0)"/></marker><marker id="Arrow1Mend-1" orient="auto" overflow="visible" refX="0" refY="0"><path id="path4415-00" fill="#383838" fill-rule="evenodd" stroke="#383838" stroke-width="1pt" marker-start="none" d="M 0,0 5,-5 -12.5,0 5,5 0,0 z" transform="matrix(-0.4,0,0,-0.4,-4,0)"/></marker><marker id="Arrow1Mend-232" orient="auto" overflow="visible" refX="0" refY="0"><path id="path4415-1" fill="#383838" fill-rule="evenodd" stroke="#383838" stroke-width="1pt" marker-start="none" d="M 0,0 5,-5 -12.5,0 5,5 0,0 z" transform="matrix(-0.4,0,0,-0.4,-4,0)"/></marker><marker id="Arrow1Mend-48" orient="auto" overflow="visible" refX="0" refY="0"><path id="path4415-3" fill="#383838" fill-rule="evenodd" stroke="#383838" stroke-width="1pt" marker-start="none" d="M 0,0 5,-5 -12.5,0 5,5 0,0 z" transform="matrix(-0.4,0,0,-0.4,-4,0)"/></marker><marker id="Arrow1Mend-22" orient="auto" overflow="visible" refX="0" refY="0"><path id="path4415-45" fill="#383838" fill-rule="evenodd" stroke="#383838" stroke-width="1pt" marker-start="none" d="M 0,0 5,-5 -12.5,0 5,5 0,0 z" transform="matrix(-0.4,0,0,-0.4,-4,0)"/></marker><marker id="Arrow1Mend-5" orient="auto" overflow="visible" refX="0" refY="0"><path id="path4415-40" fill="#383838" fill-rule="evenodd" stroke="#383838" stroke-width="1pt" marker-start="none" d="M 0,0 5,-5 -12.5,0 5,5 0,0 z" transform="matrix(-0.4,0,0,-0.4,-4,0)"/></marker><marker id="Arrow1Mend-26" orient="auto" overflow="visible" refX="0" refY="0"><path id="path4415-2" fill="#383838" fill-rule="evenodd" stroke="#383838" stroke-width="1pt" marker-start="none" d="M 0,0 5,-5 -12.5,0 5,5 0,0 z" transform="matrix(-0.4,0,0,-0.4,-4,0)"/></marker><marker id="marker7204" orient="auto" overflow="visible" refX="0" refY="0"><path id="path7206" fill="#383838" fill-rule="evenodd" stroke="#383838" stroke-width="1pt" marker-start="none" d="M 0,0 5,-5 -12.5,0 5,5 0,0 z" transform="matrix(-0.4,0,0,-0.4,-4,0)"/></marker><marker id="marker7208" orient="auto" overflow="visible" refX="0" refY="0"><path id="path7210" fill="#383838" fill-rule="evenodd" stroke="#383838" stroke-width="1pt" marker-start="none" d="M 0,0 5,-5 -12.5,0 5,5 0,0 z" transform="matrix(-0.4,0,0,-0.4,-4,0)"/></marker><marker id="Arrow1Mend-25" orient="auto" overflow="visible" refX="0" refY="0"><path id="path4415-9" fill="#383838" fill-rule="evenodd" stroke="#383838" stroke-width="1pt" marker-start="none" d="M 0,0 5,-5 -12.5,0 5,5 0,0 z" transform="matrix(-0.4,0,0,-0.4,-4,0)"/></marker><marker id="marker7204-9" orient="auto" overflow="visible" refX="0" refY="0"><path id="path7206-8" fill="#383838" fill-rule="evenodd" stroke="#383838" stroke-width="1pt" marker-start="none" d="M 0,0 5,-5 -12.5,0 5,5 0,0 z" transform="matrix(-0.4,0,0,-0.4,-4,0)"/></marker><marker id="marker7208-8" orient="auto" overflow="visible" refX="0" refY="0"><path id="path7210-4" fill="#383838" fill-rule="evenodd" stroke="#383838" stroke-width="1pt" marker-start="none" d="M 0,0 5,-5 -12.5,0 5,5 0,0 z" transform="matrix(-0.4,0,0,-0.4,-4,0)"/></marker><marker id="Arrow1Mend-10" orient="auto" overflow="visible" refX="0" refY="0"><path id="path4415-12" fill="#383838" fill-rule="evenodd" stroke="#383838" stroke-width="1pt" marker-start="none" d="M 0,0 5,-5 -12.5,0 5,5 0,0 z" transform="matrix(-0.4,0,0,-0.4,-4,0)"/></marker><marker id="marker7333" orient="auto" overflow="visible" refX="0" refY="0"><path id="path7335" fill="#383838" fill-rule="evenodd" stroke="#383838" stroke-width="1pt" marker-start="none" d="M 0,0 5,-5 -12.5,0 5,5 0,0 z" transform="matrix(-0.4,0,0,-0.4,-4,0)"/></marker><marker id="Arrow1Mend-3" orient="auto" overflow="visible" refX="0" refY="0"><path id="path4415-85" fill="#383838" fill-rule="evenodd" stroke="#383838" stroke-width="1pt" marker-start="none" d="M 0,0 5,-5 -12.5,0 5,5 0,0 z" transform="matrix(-0.4,0,0,-0.4,-4,0)"/></marker><marker id="Arrow1Mend-7" orient="auto" overflow="visible" refX="0" refY="0"><path id="path4415-05" fill="#383838" fill-rule="evenodd" stroke="#383838" stroke-width="1pt" marker-start="none" d="M 0,0 5,-5 -12.5,0 5,5 0,0 z" transform="matrix(-0.4,0,0,-0.4,-4,0)"/></marker><marker id="Arrow1Mend-14" orient="auto" overflow="visible" refX="0" refY="0"><path id="path4415-63" fill="#383838" fill-rule="evenodd" stroke="#383838" stroke-width="1pt" marker-start="none" d="M 0,0 5,-5 -12.5,0 5,5 0,0 z" transform="matrix(-0.4,0,0,-0.4,-4,0)"/></marker><marker id="Arrow1Mend-86" orient="auto" overflow="visible" refX="0" refY="0"><path id="path4415-80" fill="#383838" fill-rule="evenodd" stroke="#383838" stroke-width="1pt" marker-start="none" d="M 0,0 5,-5 -12.5,0 5,5 0,0 z" transform="matrix(-0.4,0,0,-0.4,-4,0)"/></marker><marker id="Arrow1Mend-20" orient="auto" overflow="visible" refX="0" refY="0"><path id="path4415-7" fill="#383838" fill-rule="evenodd" stroke="#383838" stroke-width="1pt" marker-start="none" d="M 0,0 5,-5 -12.5,0 5,5 0,0 z" transform="matrix(-0.4,0,0,-0.4,-4,0)"/></marker></defs><metadata id="metadata_5.5"/><g id="layer6" display="inline" transform="translate(-124.71875,-112.24304)"><rect id="rect6788-7-2-7-4-3" width="95.455" height="57.273" x="130.242" y="115.755" fill="#e8e8e8" fill-opacity="1" stroke="#383838" stroke-dasharray="none" stroke-dashoffset="0" stroke-linecap="round" stroke-linejoin="round" stroke-miterlimit="4" stroke-opacity="1" stroke-width="1.015" display="inline" rx="6.765" ry="6.765"/><rect id="rect6788-7-2-7-4-3-6" width="95.455" height="57.273" x="330.696" y="115.755" fill="#e8e8e8" fill-opacity="1" stroke="#383838" stroke-dasharray="none" stroke-dashoffset="0" stroke-linecap="round" stroke-linejoin="round" stroke-miterlimit="4" stroke-opacity="1" stroke-width="1.015" display="inline" rx="6.765" ry="6.765"/><rect id="rect6788-7-2-7-4-3-4" width="95.455" height="57.273" x="130.242" y="249.392" fill="#e8e8e8" fill-opacity="1" stroke="#383838" stroke-dasharray="none" stroke-dashoffset="0" stroke-linecap="round" stroke-linejoin="round" stroke-miterlimit="4" stroke-opacity="1" stroke-width="1.015" display="inline" rx="6.765" ry="6.765"/><path id="path8845-6-0-7-0" fill="none" stroke="#383838" stroke-dasharray="none" stroke-linecap="butt" stroke-linejoin="round" stroke-miterlimit="4" stroke-opacity="1" stroke-width="1.488" marker-end="url(#Arrow1Mend)" d="m 597.9697,210.35796 0,-34.87507" display="inline"/><path id="path8845-6-0-7-0-4-7-9" fill="none" stroke="#383838" stroke-dasharray="none" stroke-linecap="butt" stroke-linejoin="round" stroke-miterlimit="4" stroke-opacity="1" stroke-width="1.488" marker-end="url(#Arrow1Mend)" d="m 426.15121,144.39191 140.38661,0" display="inline"/><path id="rect6788-7-2-7-4-3-4-8-3" fill="none" stroke="#383838" stroke-dasharray="none" stroke-dashoffset="0" stroke-linecap="round" stroke-linejoin="round" stroke-miterlimit="4" stroke-opacity="1" stroke-width="1.015" d="m 575.06057,268.48305 45.81826,0 c 5.72728,0 8.74022,-3.7707 5.72728,-9.54548 L 603.69698,215.0284 c -2.99386,-5.72728 -8.41981,-5.66701 -11.45456,0 l -22.90914,43.90917 c -3.01293,5.77478 0,9.54548 5.72729,9.54548 z" display="inline"/><path id="path4082" fill="none" stroke="#383838" stroke-dasharray="none" stroke-dashoffset="0" stroke-linecap="round" stroke-linejoin="round" stroke-miterlimit="4" stroke-opacity="1" stroke-width=".531" d="m 310,72.362183 a 15,15 0 1 1 -30,0 15,15 0 1 1 30,0 z" transform="matrix(1.9090943,0,0,1.9090943,34.78687,6.24569)"/><path id="path4082-9" fill="none" stroke="#383838" stroke-dasharray="none" stroke-dashoffset="0" stroke-linecap="round" stroke-linejoin="round" stroke-miterlimit="4" stroke-opacity="1" stroke-width=".531" d="m 310,72.362183 a 15,15 0 1 1 -30,0 15,15 0 1 1 30,0 z" transform="matrix(1.9090943,0,0,1.9090943,-60.66784,139.88229)"/><path id="rect6788-7-2-7-4-3-4-8-4" fill="none" stroke="#383838" stroke-dasharray="none" stroke-dashoffset="0" stroke-linecap="round" stroke-linejoin="round" stroke-miterlimit="4" stroke-opacity="1" stroke-width="1.015" d="m 285.93501,316.2104 99.2729,0 c 5.72729,0 7.70858,5.47993 5.72729,9.54548 l -19.96281,40.96286 c -1.64174,3.36881 -4.85542,6.76449 -10.5827,6.76449 l -49.63645,0 c -5.72729,0 -8.94096,-3.39568 -10.58271,-6.76449 l -19.9628,-40.96286 c -1.9813,-4.06555 0,-9.54548 5.72728,-9.54548 z" display="inline"/><path id="path4116" fill="none" stroke="#383838" stroke-dasharray="none" stroke-linecap="round" stroke-linejoin="round" stroke-miterlimit="4" stroke-opacity="1" stroke-width="1.015" d="m 266.674,151.14157 13.49934,-13.49933"/><path id="path4118" fill="none" stroke="#383838" stroke-dasharray="none" stroke-linecap="round" stroke-linejoin="round" stroke-miterlimit="4" stroke-opacity="1" stroke-width="1.015" d="M 280.17334,151.14157 266.674,137.64224"/><path id="path4086-0" fill="none" stroke="#383838" stroke-dasharray="none" stroke-dashoffset="0" stroke-linecap="round" stroke-linejoin="round" stroke-miterlimit="4" stroke-opacity="1" stroke-width=".531" d="m 210,87.362183 a 5,5 0 1 1 -10,0 5,5 0 1 1 10,0 z" transform="matrix(-1.3499335,-1.3499335,1.3499335,-1.3499335,432.2269,539.06143)"/><path id="path8845-6-0-7-0-4" fill="none" stroke="#383838" stroke-dasharray="none" stroke-linecap="butt" stroke-linejoin="round" stroke-miterlimit="4" stroke-opacity="1" stroke-width="1.488" marker-end="url(#Arrow1Mend)" d="m 263.87819,144.39192 -35.55688,0"/><path id="path4298" fill="none" stroke="#383838" stroke-dasharray="none" stroke-linecap="butt" stroke-linejoin="round" stroke-miterlimit="4" stroke-opacity="1" stroke-width="1.488" d="m 282.96914,144.39192 47.72735,0"/><path id="path4116-0" fill="none" stroke="#383838" stroke-dasharray="none" stroke-linecap="round" stroke-linejoin="round" stroke-miterlimit="4" stroke-opacity="1" stroke-width="1.015" d="m 171.21929,217.95988 13.49934,-13.49934"/><path id="path4118-3" fill="none" stroke="#383838" stroke-dasharray="none" stroke-linecap="round" stroke-linejoin="round" stroke-miterlimit="4" stroke-opacity="1" stroke-width="1.015" d="M 184.71863,217.95988 171.21929,204.46054"/><path id="path4086-0-97" fill="none" stroke="#383838" stroke-dasharray="none" stroke-dashoffset="0" stroke-linecap="round" stroke-linejoin="round" stroke-miterlimit="4" stroke-opacity="1" stroke-width=".531" d="m 210,87.362183 a 5,5 0 1 1 -10,0 5,5 0 1 1 10,0 z" transform="matrix(-1.3499335,-1.3499335,1.3499335,-1.3499335,336.77219,605.87973)"/><path id="path4298-8" fill="none" stroke="#383838" stroke-dasharray="none" stroke-linecap="butt" stroke-linejoin="round" stroke-miterlimit="4" stroke-opacity="1" stroke-width="1.488" d="m 177.96895,173.02833 0,28.12506" display="inline"/><path id="path8845-6-0-7-0-4-7-6" fill="none" stroke="#383838" stroke-dasharray="none" stroke-linecap="butt" stroke-linejoin="round" stroke-miterlimit="4" stroke-opacity="1" stroke-width="1.488" marker-end="url(#Arrow1Mend)" d="m 177.96895,220.92615 0,25.50004" display="inline"/><path id="path8845-6-0-7-0-4-7-6-5" fill="none" stroke="#383838" stroke-dasharray="none" stroke-linecap="butt" stroke-linejoin="round" stroke-miterlimit="4" stroke-opacity="1" stroke-width="1.488" marker-end="url(#Arrow1Mend)" d="m 359.33291,173.02833 0,140.55707" display="inline"/><path id="path4116-1" fill="none" stroke="#383838" stroke-dasharray="none" stroke-linecap="butt" stroke-linejoin="round" stroke-miterlimit="4" stroke-opacity="1" stroke-width="1.015" d="m 390.76514,204.46056 13.49933,13.49933"/><path id="path4118-9" fill="none" stroke="#383838" stroke-dasharray="none" stroke-linecap="butt" stroke-linejoin="round" stroke-miterlimit="4" stroke-opacity="1" stroke-width="1.015" d="m 390.76514,217.95989 13.49933,-13.49933"/><path id="path4086-0-8" fill="none" stroke="#383838" stroke-dasharray="none" stroke-dashoffset="0" stroke-linecap="butt" stroke-linejoin="round" stroke-miterlimit="4" stroke-opacity="1" stroke-width=".531" d="m 210,87.362183 a 5,5 0 1 1 -10,0 5,5 0 1 1 10,0 z" transform="matrix(1.3499335,-1.3499335,1.3499335,1.3499335,2.84528,370.01345)"/><path id="path8845-6-0-7-0-4-6" fill="none" stroke="#383838" stroke-dasharray="none" stroke-linecap="butt" stroke-linejoin="round" stroke-miterlimit="4" stroke-opacity="1" stroke-width="1.488" marker-end="url(#Arrow1Mend)" d="m 397.5148,201.66474 0,-25.84094"/><path id="path4298-5" fill="none" stroke="#383838" stroke-dasharray="none" stroke-linecap="butt" stroke-linejoin="round" stroke-miterlimit="4" stroke-opacity="1" stroke-width="1.488" d="m 397.5148,220.75569 0,57.27283"/><path id="path8845-6-0-7-0-4-7-6-5-4" fill="none" stroke="#383838" stroke-dasharray="none" stroke-linecap="butt" stroke-linejoin="round" stroke-miterlimit="4" stroke-opacity="1" stroke-width="1.488" marker-end="url(#Arrow1Mend)" d="m 225.69631,278.02852 245.38679,0" display="inline"/><path id="path8845-6-0-7-0-4-7-6-9" fill="none" stroke="#383838" stroke-dasharray="none" stroke-linecap="round" stroke-linejoin="round" stroke-miterlimit="4" stroke-opacity="1" stroke-width="1.488" marker-end="url(#Arrow1Mend)" d="m 311.60555,278.02852 0,35.55688" display="inline"/><path id="path9674-69-6-1-6" fill="#383838" fill-opacity="1" stroke="#383838" stroke-dasharray="none" stroke-dashoffset="0" stroke-linecap="round" stroke-linejoin="round" stroke-miterlimit="4" stroke-opacity="1" stroke-width="1.063" d="m 237,128.36218 a 1,1 0 1 1 -2,0 1,1 0 1 1 2,0 z" display="inline" transform="matrix(1.9090943,0,0,1.9090943,-138.96011,32.97301)"/><path id="path4116-8" fill="none" stroke="#383838" stroke-dasharray="none" stroke-linecap="round" stroke-linejoin="round" stroke-miterlimit="4" stroke-opacity="1" stroke-width="1.015" d="m 171.21929,343.82444 13.49934,13.49934"/><path id="path4118-6" fill="none" stroke="#383838" stroke-dasharray="none" stroke-linecap="round" stroke-linejoin="round" stroke-miterlimit="4" stroke-opacity="1" stroke-width="1.015" d="m 171.21929,357.32378 13.49934,-13.49934"/><path id="path4086-0-9" fill="none" stroke="#383838" stroke-dasharray="none" stroke-dashoffset="0" stroke-linecap="round" stroke-linejoin="round" stroke-miterlimit="4" stroke-opacity="1" stroke-width=".531" d="m 210,87.362183 a 5,5 0 1 1 -10,0 5,5 0 1 1 10,0 z" transform="matrix(1.3499335,-1.3499335,1.3499335,1.3499335,-216.70056,509.37734)"/><path id="path8845-6-0-7-0-4-7" fill="none" stroke="#383838" stroke-dasharray="none" stroke-linecap="butt" stroke-linejoin="round" stroke-miterlimit="4" stroke-opacity="1" stroke-width="1.488" marker-end="url(#Arrow1Mend)" d="m 177.96895,341.02863 0,-31.73869" display="inline"/><path id="path8845-1-4-88" fill="none" stroke="#383838" stroke-dasharray="none" stroke-linecap="butt" stroke-linejoin="round" stroke-miterlimit="4" stroke-opacity="1" stroke-width="1.488" marker-end="none" d="m 177.96895,360.11957 0,32.45461 c 0,5.72728 3.81819,9.54547 9.54547,9.54547 l 138.51161,0 c 5.72728,-6e-5 9.54547,-3.81819 9.54547,-9.54547 l 0,-19.09095" display="inline"/><path id="path8845-6-0-7-0-4-7-6-5-9" fill="none" stroke="#383838" stroke-dasharray="none" stroke-linecap="round" stroke-linejoin="round" stroke-miterlimit="4" stroke-opacity="1" stroke-width="1.488" marker-end="url(#Arrow1Mend)" d="m 502.51498,144.39192 0,102.37518" display="inline"/><path id="path9674-69-6-1-6-9" fill="#383838" fill-opacity="1" stroke="#383838" stroke-dasharray="none" stroke-dashoffset="0" stroke-linecap="round" stroke-linejoin="round" stroke-miterlimit="4" stroke-opacity="1" stroke-width="1.063" d="m 237,128.36218 a 1,1 0 1 1 -2,0 1,1 0 1 1 2,0 z" display="inline" transform="matrix(1.9090943,0,0,1.9090943,-53.05086,32.97301)"/><path id="path9674-69-6-1-6-95" fill="#383838" fill-opacity="1" stroke="#383838" stroke-dasharray="none" stroke-dashoffset="0" stroke-linecap="round" stroke-linejoin="round" stroke-miterlimit="4" stroke-opacity="1" stroke-width="1.063" d="m 237,128.36218 a 1,1 0 1 1 -2,0 1,1 0 1 1 2,0 z" display="inline" transform="matrix(1.9090943,0,0,1.9090943,51.94933,-100.6636)"/><rect id="rect6788-7-2-7-4" width="66.818" height="66.818" x="-245.883" y="525.29" fill="none" stroke="#383838" stroke-dasharray="none" stroke-dashoffset="0" stroke-linecap="round" stroke-linejoin="round" stroke-miterlimit="4" stroke-opacity="1" stroke-width="1.015" display="inline" rx="6.765" ry="6.765" transform="matrix(0.70710678,-0.70710678,0.70710678,0.70710678,0,0)"/><path id="path8845-6-0-7-0-4-7-6-0" fill="none" stroke="#383838" stroke-dasharray="none" stroke-linecap="butt" stroke-linejoin="round" stroke-miterlimit="4" stroke-opacity="1" stroke-width="1.488" marker-end="url(#Arrow1Mend)" d="m 289.75324,545.30172 59.35235,0"/><path id="path8845-6-0-7-0-4-7-6-2" fill="none" stroke="#383838" stroke-dasharray="none" stroke-linecap="round" stroke-linejoin="round" stroke-miterlimit="4" stroke-opacity="1" stroke-width="1.488" marker-end="url(#Arrow1Mend)" d="m 244.78725,468.93795 0,28.97734"/><rect id="rect6788-7-2-7-4-39" width="66.818" height="66.818" x="-137.888" y="795.277" fill="none" stroke="#383838" stroke-dasharray="none" stroke-dashoffset="0" stroke-linecap="round" stroke-linejoin="round" stroke-miterlimit="4" stroke-opacity="1" stroke-width="1.015" display="inline" rx="6.765" ry="6.765" transform="matrix(0.70710678,-0.70710678,0.70710678,0.70710678,0,0)"/><path id="path8845-6-0-7-0-4-7-6-2-7" fill="none" stroke="#383838" stroke-dasharray="none" stroke-linecap="butt" stroke-linejoin="round" stroke-miterlimit="4" stroke-opacity="1" stroke-width="1.488" marker-end="url(#Arrow1Mend)" d="m 512.06046,573.93814 0,38.42295"/><rect id="rect6788-7-2-7-4-3-60" width="95.455" height="57.273" x="302.06" y="631.211" fill="#e8e8e8" fill-opacity="1" stroke="#383838" stroke-dasharray="none" stroke-dashoffset="0" stroke-linecap="round" stroke-linejoin="round" stroke-miterlimit="4" stroke-opacity="1" stroke-width="1.015" display="inline" rx="6.765" ry="6.765"/><rect id="rect6788-7-2-7-4-3-4-4" width="95.455" height="57.273" x="197.06" y="774.393" fill="#e8e8e8" fill-opacity="1" stroke="#383838" stroke-dasharray="none" stroke-dashoffset="0" stroke-linecap="round" stroke-linejoin="round" stroke-miterlimit="4" stroke-opacity="1" stroke-width="1.015" display="inline" rx="6.765" ry="6.765"/><rect id="rect6788-7-2-7-4-3-2" width="95.455" height="57.273" x="197.06" y="869.848" fill="#e8e8e8" fill-opacity="1" stroke="#383838" stroke-dasharray="none" stroke-dashoffset="0" stroke-linecap="round" stroke-linejoin="round" stroke-miterlimit="4" stroke-opacity="1" stroke-width="1.015" display="inline" rx="6.765" ry="6.765"/><path id="path8845-6-0-7-0-4-7-6-6-0" fill="none" stroke="#383838" stroke-dasharray="none" stroke-linecap="butt" stroke-linejoin="round" stroke-miterlimit="4" stroke-opacity="1" stroke-width="1.488" marker-end="url(#Arrow1Mend)" d="m 244.78725,831.66587 0,35.32794"/><rect id="rect6788-7-2-7-4-3-60-8" width="95.455" height="57.273" x="464.333" y="516.665" fill="#e8e8e8" fill-opacity="1" stroke="#383838" stroke-dasharray="none" stroke-dashoffset="0" stroke-linecap="round" stroke-linejoin="round" stroke-miterlimit="4" stroke-opacity="1" stroke-width="1.015" display="inline" rx="6.765" ry="6.765"/><path id="path8845-6-0-7-0-4-7-6-0-9" fill="none" stroke="#383838" stroke-dasharray="none" stroke-linecap="butt" stroke-linejoin="round" stroke-miterlimit="4" stroke-opacity="1" stroke-width="1.488" marker-end="url(#Arrow1Mend)" d="m 397.5148,659.84738 67.17988,0"/><path id="path8845-1-4-88-5" fill="none" stroke="#383838" stroke-dasharray="none" stroke-linecap="butt" stroke-linejoin="round" stroke-miterlimit="4" stroke-opacity="1" stroke-width="1.488" marker-end="url(#Arrow1Mend)" d="m 556.8219,659.84738 41.1478,0 c 5.72728,0 9.54547,-3.81819 9.54547,-9.54547 l 0,-95.45472 c 0,-5.72728 -3.81819,-9.54547 -9.54547,-9.54547 l -35.2074,-7e-5"/><path id="path8845-1-0-3" fill="none" stroke="#383838" stroke-dasharray="none" stroke-linecap="butt" stroke-linejoin="round" stroke-miterlimit="4" stroke-opacity="1" stroke-width="1.488" marker-end="url(#Arrow1Mend)" d="m 512.06046,704.55891 0,22.10677 c 0,5.72729 -3.81819,9.54548 -9.54548,9.54548 l -248.18226,0 c -5.72728,0 -9.54547,3.81818 -9.54547,9.54547 l 0,25.66193" display="inline"/><path id="path8845-1-4-88-8" fill="none" stroke="#383838" stroke-dasharray="none" stroke-linecap="butt" stroke-linejoin="round" stroke-miterlimit="4" stroke-opacity="1" stroke-width="1.488" marker-end="url(#Arrow1Mend)" d="m 244.78725,590.06317 0,60.23874 c 0,5.72728 3.81819,9.54547 9.54547,9.54547 l 44.75288,8e-5"/><path id="path8845-1-4-88-5-3" fill="none" stroke="#383838" stroke-dasharray="none" stroke-linecap="butt" stroke-linejoin="round" stroke-miterlimit="4" stroke-opacity="1" stroke-width="1.488" marker-end="url(#Arrow1Mend)" d="m 197.05989,898.48417 -38.18189,0 c -5.72728,0 -9.54547,-3.81819 -9.54547,-9.54547 l 0,-334.09151 c 0,-5.72728 3.81819,-9.54547 9.54547,-9.54547 l 38.69326,-7e-5"/></g><g id="layer7" display="inline" transform="translate(-124.71875,-112.24304)"><text font-stretch="normal" style="text-align:center;line-height:125%;-inkscape-font-specification:Inconsolata LGC" id="text4630" x="273.424" y="176.847" fill="#383838" fill-opacity="1" stroke="none" font-family="Inconsolata LGC" font-size="20" font-style="normal" font-variant="normal" font-weight="normal" letter-spacing="0" text-anchor="middle" word-spacing="0" xml:space="preserve"><tspan id="tspan4632" x="273.424" y="176.847" dx="0 3.818 3.818">a←b</tspan></text><text font-stretch="normal" style="text-align:start;line-height:125%;-inkscape-font-specification:Inconsolata LGC" id="text4634" x="198.764" y="216.938" fill="#383838" fill-opacity="1" stroke="none" display="inline" font-family="Inconsolata LGC" font-size="20" font-style="normal" font-variant="normal" font-weight="normal" letter-spacing="0" text-anchor="start" word-spacing="0" xml:space="preserve"><tspan id="tspan4636" x="198.764" y="216.938" dx="0 3.818 3.818">t←a</tspan></text><text font-stretch="normal" style="text-align:start;line-height:125%;-inkscape-font-specification:Inconsolata LGC" id="text4638" x="418.515" y="216.938" fill="#383838" fill-opacity="1" stroke="none" display="inline" font-family="Inconsolata LGC" font-size="20" font-style="normal" font-variant="normal" font-weight="normal" letter-spacing="0" text-anchor="start" word-spacing="0" xml:space="preserve"><tspan id="tspan4640" x="418.515" y="216.938" dx="0 3.818 3.818">b←t</tspan></text><text font-stretch="normal" style="text-align:start;line-height:125%;-inkscape-font-specification:Inconsolata LGC" id="text4634-5" x="198.969" y="356.301" fill="#383838" fill-opacity="1" stroke="none" display="inline" font-family="Inconsolata LGC" font-size="20" font-style="normal" font-variant="normal" font-weight="normal" letter-spacing="0" text-anchor="start" word-spacing="0" xml:space="preserve"><tspan id="tspan4636-2" x="198.969" y="356.301" dx="0 3.818 3.818">t←d</tspan></text><text font-stretch="normal" style="text-align:center;line-height:125%;-inkscape-font-specification:Sans" id="text6689-7-1" x="177.969" y="151.166" fill="#383838" fill-opacity="1" stroke="none" display="inline" font-family="Inconsolata LGC" font-size="20" font-style="normal" font-variant="normal" font-weight="normal" letter-spacing="0" text-anchor="middle" word-spacing="0" xml:space="preserve"><tspan id="tspan6691-7-5" x="177.969" y="151.166">a</tspan></text><text font-stretch="normal" style="text-align:center;line-height:125%;-inkscape-font-specification:Sans" id="text6689-7-1-5" x="378.424" y="151.166" fill="#383838" fill-opacity="1" stroke="none" display="inline" font-family="Inconsolata LGC" font-size="20" font-style="normal" font-variant="normal" font-weight="normal" letter-spacing="0" text-anchor="middle" word-spacing="0" xml:space="preserve"><tspan id="tspan6691-7-5-7" x="378.424" y="151.166">b</tspan></text><text font-stretch="normal" style="text-align:center;line-height:125%;-inkscape-font-specification:Sans" id="text6689-7-1-3" x="177.969" y="285.485" fill="#383838" fill-opacity="1" stroke="none" display="inline" font-family="Inconsolata LGC" font-size="20" font-style="normal" font-variant="normal" font-weight="normal" letter-spacing="0" text-anchor="middle" word-spacing="0" xml:space="preserve"><tspan id="tspan6691-7-5-6" x="177.969" y="285.485">t</tspan></text><text font-stretch="normal" style="text-align:center;line-height:125%;-inkscape-font-specification:Sans" id="text6689-7-1-3-1-1" x="335.401" y="350.574" fill="#383838" fill-opacity="1" stroke="none" display="inline" font-family="Inconsolata LGC" font-size="20" font-style="normal" font-variant="normal" font-weight="normal" letter-spacing="0" text-anchor="middle" word-spacing="0" xml:space="preserve"><tspan id="tspan6691-7-5-6-0-9" x="335.401" y="350.574" dx="0 -7.636">--</tspan></text><text font-stretch="normal" style="text-align:center;line-height:125%;-inkscape-font-specification:Inconsolata LGC" id="text4171-6" x="502.515" y="284.847" fill="#383838" fill-opacity="1" stroke="none" display="inline" font-family="Inconsolata LGC" font-size="20" font-style="normal" font-variant="normal" font-weight="normal" letter-spacing="0" text-anchor="middle" word-spacing="0" xml:space="preserve"><tspan id="tspan4173-6" x="502.515" y="284.847">&lt;</tspan></text><text font-stretch="normal" style="text-align:center;line-height:125%;-inkscape-font-specification:Inconsolata LGC" id="text4051" x="597.97" y="255.119" fill="#383838" fill-opacity="1" stroke="none" display="inline" font-family="Inconsolata LGC" font-size="20" font-style="normal" font-variant="normal" font-weight="normal" letter-spacing="0" text-anchor="middle" word-spacing="0" xml:space="preserve"><tspan id="tspan4053" x="597.97" y="255.119">0</tspan></text><text font-stretch="normal" style="text-align:center;line-height:125%;-inkscape-font-specification:Inconsolata LGC" id="text4171" x="597.97" y="151.21" fill="#383838" fill-opacity="1" stroke="none" display="inline" font-family="Inconsolata LGC" font-size="20" font-style="normal" font-variant="normal" font-weight="normal" letter-spacing="0" text-anchor="middle" word-spacing="0" xml:space="preserve"><tspan id="tspan4173" x="597.97" y="151.21">=</tspan></text><text font-stretch="normal" style="text-align:center;line-height:125%;-inkscape-font-specification:Inconsolata LGC" id="text3191" x="245.299" y="552.052" fill="#383838" fill-opacity="1" stroke="none" display="inline" font-family="Inconsolata LGC" font-size="20" font-style="normal" font-variant="normal" font-weight="normal" letter-spacing="0" text-anchor="middle" word-spacing="0" xml:space="preserve"><tspan id="tspan3193" x="245.299" y="552.052">=</tspan></text><text font-stretch="normal" style="text-align:center;line-height:125%;-inkscape-font-specification:Inconsolata LGC" id="text4364" x="244.787" y="457.279" fill="#383838" fill-opacity="1" stroke="none" display="inline" font-family="Inconsolata LGC" font-size="20" font-style="normal" font-variant="normal" font-weight="normal" letter-spacing="0" text-anchor="middle" word-spacing="0" xml:space="preserve"><tspan id="tspan4366" x="244.787" y="457.279">start</tspan></text><text font-stretch="normal" style="text-align:start;line-height:125%;-inkscape-font-specification:Inconsolata LGC" id="text4368" x="296.333" y="531.938" fill="#383838" fill-opacity="1" stroke="none" display="inline" font-family="Inconsolata LGC" font-size="20" font-style="normal" font-variant="normal" font-weight="normal" letter-spacing="0" text-anchor="start" word-spacing="0" xml:space="preserve"><tspan id="tspan4370" x="296.333" y="531.938">yes</tspan></text><text font-stretch="normal" style="text-align:start;line-height:125%;-inkscape-font-specification:Inconsolata LGC" id="text4372" x="365.06" y="551.029" fill="#383838" fill-opacity="1" stroke="none" display="inline" font-family="Inconsolata LGC" font-size="20" font-style="normal" font-variant="normal" font-weight="normal" letter-spacing="0" text-anchor="start" word-spacing="0" xml:space="preserve"><tspan id="tspan4374" x="365.06" y="551.029">done</tspan></text><text font-stretch="normal" style="text-align:start;line-height:125%;-inkscape-font-specification:Inconsolata LGC" id="text4376" x="256.242" y="619.756" fill="#383838" fill-opacity="1" stroke="none" display="inline" font-family="Inconsolata LGC" font-size="20" font-style="normal" font-variant="normal" font-weight="normal" letter-spacing="0" text-anchor="start" word-spacing="0" xml:space="preserve"><tspan id="tspan4378" x="256.242" y="619.756">no</tspan></text><text font-stretch="normal" style="text-align:center;line-height:125%;-inkscape-font-specification:Inconsolata LGC" id="text3191-1" x="512.06" y="666.597" fill="#383838" fill-opacity="1" stroke="none" display="inline" font-family="Inconsolata LGC" font-size="20" font-style="normal" font-variant="normal" font-weight="normal" letter-spacing="0" text-anchor="middle" word-spacing="0" xml:space="preserve"><tspan id="tspan3193-1" x="512.06" y="666.597">&lt;</tspan></text><text font-stretch="normal" style="text-align:start;line-height:125%;-inkscape-font-specification:Inconsolata LGC" id="text4368-2" x="569.333" y="646.484" fill="#383838" fill-opacity="1" stroke="none" display="inline" font-family="Inconsolata LGC" font-size="20" font-style="normal" font-variant="normal" font-weight="normal" letter-spacing="0" text-anchor="start" word-spacing="0" xml:space="preserve"><tspan id="tspan4370-7" x="569.333" y="646.484">no</tspan></text><text font-stretch="normal" style="text-align:start;line-height:125%;-inkscape-font-specification:Inconsolata LGC" id="text4376-6" x="523.515" y="726.666" fill="#383838" fill-opacity="1" stroke="none" display="inline" font-family="Inconsolata LGC" font-size="20" font-style="normal" font-variant="normal" font-weight="normal" letter-spacing="0" text-anchor="start" word-spacing="0" xml:space="preserve"><tspan id="tspan4378-2" x="523.515" y="726.666">yes</tspan></text><text font-stretch="normal" style="text-align:center;line-height:125%;-inkscape-font-specification:Sans" id="text6689-7-1-9" x="349.787" y="666.622" fill="#383838" fill-opacity="1" stroke="none" display="inline" font-family="Inconsolata LGC" font-size="20" font-style="normal" font-variant="normal" font-weight="normal" letter-spacing="0" text-anchor="middle" word-spacing="0" xml:space="preserve"><tspan id="tspan6691-7-5-8" x="349.787" y="666.622" dx="0 3.818 3.818">t←a</tspan></text><text font-stretch="normal" style="text-align:center;line-height:125%;-inkscape-font-specification:Sans" id="text6689-7-1-1" x="244.787" y="809.804" fill="#383838" fill-opacity="1" stroke="none" display="inline" font-family="Inconsolata LGC" font-size="20" font-style="normal" font-variant="normal" font-weight="normal" letter-spacing="0" text-anchor="middle" word-spacing="0" xml:space="preserve"><tspan id="tspan6691-7-5-7-7" x="244.787" y="809.804" dx="0 3.818 3.818">a←b</tspan></text><text font-stretch="normal" style="text-align:center;line-height:125%;-inkscape-font-specification:Sans" id="text6689-7-1-12" x="244.787" y="905.258" fill="#383838" fill-opacity="1" stroke="none" display="inline" font-family="Inconsolata LGC" font-size="20" font-style="normal" font-variant="normal" font-weight="normal" letter-spacing="0" text-anchor="middle" word-spacing="0" xml:space="preserve"><tspan id="tspan6691-7-5-5" x="244.787" y="905.258" dx="0 3.818 3.818">b←t</tspan></text><text font-stretch="normal" style="text-align:center;line-height:125%;-inkscape-font-specification:Sans" id="text6689-7-1-9-0" x="512.06" y="552.076" fill="#383838" fill-opacity="1" stroke="none" display="inline" font-family="Inconsolata LGC" font-size="20" font-style="normal" font-variant="normal" font-weight="normal" letter-spacing="0" text-anchor="middle" word-spacing="0" xml:space="preserve"><tspan id="tspan6691-7-5-8-2" x="512.06" y="552.076" dx="0 3.818 3.818">t←d</tspan></text></g></svg>