<?xml-stylesheet href="../../css/fonts/fonts.css" type="text/css"?><svg xmlns="http://www.w3.org/2000/svg" xmlns:svg="http://www.w3.org/2000/svg" id="svg2" display="inline" preserveAspectRatio="xMinYMin meet" version="1.1" viewBox="0 0 644 329"><title id="title4943">SICP Figure 2.3</title><defs id="defs4"><marker id="Arrow1Mstart" orient="auto" overflow="visible" refX="0" refY="0"><path id="path4565" fill="#383838" fill-rule="evenodd" stroke="#383838" stroke-width="1pt" marker-start="none" d="M 0,0 5,-5 -12.5,0 5,5 0,0 z" transform="matrix(0.4,0,0,0.4,4,0)"/></marker><marker id="Arrow1Lstart" orient="auto" overflow="visible" refX="0" refY="0"><path id="path4559" fill-rule="evenodd" stroke="#383838" stroke-width="1pt" marker-start="none" d="M 0,0 5,-5 -12.5,0 5,5 0,0 z" transform="matrix(0.8,0,0,0.8,10,0)"/></marker><marker id="Arrow1Mstart-0" orient="auto" overflow="visible" refX="0" refY="0"><path id="path4565-7" fill-rule="evenodd" stroke="#383838" stroke-width="1pt" marker-start="none" d="M 0,0 5,-5 -12.5,0 5,5 0,0 z" transform="matrix(0.4,0,0,0.4,4,0)"/></marker><marker id="Arrow1Mstart-9" orient="auto" overflow="visible" refX="0" refY="0"><path id="path4565-6" fill-rule="evenodd" stroke="#383838" stroke-width="1pt" marker-start="none" d="M 0,0 5,-5 -12.5,0 5,5 0,0 z" transform="matrix(0.4,0,0,0.4,4,0)"/></marker><marker id="Arrow1Mstart-2" orient="auto" overflow="visible" refX="0" refY="0"><path id="path4565-4" fill-rule="evenodd" stroke="#383838" stroke-width="1pt" marker-start="none" d="M 0,0 5,-5 -12.5,0 5,5 0,0 z" transform="matrix(0.4,0,0,0.4,4,0)"/></marker><marker id="Arrow1Mstart-3" orient="auto" overflow="visible" refX="0" refY="0"><path id="path4565-2" fill-rule="evenodd" stroke="#383838" stroke-width="1pt" marker-start="none" d="M 0,0 5,-5 -12.5,0 5,5 0,0 z" transform="matrix(0.4,0,0,0.4,4,0)"/></marker><marker id="marker3340" orient="auto" overflow="visible" refX="0" refY="0"><path id="path3342" fill-rule="evenodd" stroke="#383838" stroke-width="1pt" marker-start="none" d="M 0,0 5,-5 -12.5,0 5,5 0,0 z" transform="matrix(0.4,0,0,0.4,4,0)"/></marker><marker id="marker3344" orient="auto" overflow="visible" refX="0" refY="0"><path id="path3346" fill-rule="evenodd" stroke="#383838" stroke-width="1pt" marker-start="none" d="M 0,0 5,-5 -12.5,0 5,5 0,0 z" transform="matrix(0.4,0,0,0.4,4,0)"/></marker><marker id="Arrow1Mstart-6" orient="auto" overflow="visible" refX="0" refY="0"><path id="path4565-9" fill-rule="evenodd" stroke="#383838" stroke-width="1pt" marker-start="none" d="M 0,0 5,-5 -12.5,0 5,5 0,0 z" transform="matrix(0.4,0,0,0.4,4,0)"/></marker><marker id="marker3411" orient="auto" overflow="visible" refX="0" refY="0"><path id="path3413" fill-rule="evenodd" stroke="#383838" stroke-width="1pt" marker-start="none" d="M 0,0 5,-5 -12.5,0 5,5 0,0 z" transform="matrix(0.4,0,0,0.4,4,0)"/></marker><marker id="marker3415" orient="auto" overflow="visible" refX="0" refY="0"><path id="path3417" fill-rule="evenodd" stroke="#383838" stroke-width="1pt" marker-start="none" d="M 0,0 5,-5 -12.5,0 5,5 0,0 z" transform="matrix(0.4,0,0,0.4,4,0)"/></marker><marker id="Arrow1Mstart-8" orient="auto" overflow="visible" refX="0" refY="0"><path id="path4565-95" fill-rule="evenodd" stroke="#383838" stroke-width="1pt" marker-start="none" d="M 0,0 5,-5 -12.5,0 5,5 0,0 z" transform="matrix(0.4,0,0,0.4,4,0)"/></marker><marker id="marker3505" orient="auto" overflow="visible" refX="0" refY="0"><path id="path3507" fill-rule="evenodd" stroke="#383838" stroke-width="1pt" marker-start="none" d="M 0,0 5,-5 -12.5,0 5,5 0,0 z" transform="matrix(0.4,0,0,0.4,4,0)"/></marker><marker id="marker3509" orient="auto" overflow="visible" refX="0" refY="0"><path id="path3511" fill-rule="evenodd" stroke="#383838" stroke-width="1pt" marker-start="none" d="M 0,0 5,-5 -12.5,0 5,5 0,0 z" transform="matrix(0.4,0,0,0.4,4,0)"/></marker><marker id="Arrow1Mstart-88" orient="auto" overflow="visible" refX="0" refY="0"><path id="path4565-45" fill-rule="evenodd" stroke="#383838" stroke-width="1pt" marker-start="none" d="M 0,0 5,-5 -12.5,0 5,5 0,0 z" transform="matrix(0.4,0,0,0.4,4,0)"/></marker><marker id="Arrow1Mstart-33" orient="auto" overflow="visible" refX="0" refY="0"><path id="path4565-46" fill-rule="evenodd" stroke="#383838" stroke-width="1pt" marker-start="none" d="M 0,0 5,-5 -12.5,0 5,5 0,0 z" transform="matrix(0.4,0,0,0.4,4,0)"/></marker><marker id="marker3610" orient="auto" overflow="visible" refX="0" refY="0"><path id="path3612" fill-rule="evenodd" stroke="#383838" stroke-width="1pt" marker-start="none" d="M 0,0 5,-5 -12.5,0 5,5 0,0 z" transform="matrix(0.4,0,0,0.4,4,0)"/></marker><marker id="Arrow1Mstart-27" orient="auto" overflow="visible" refX="0" refY="0"><path id="path4565-91" fill-rule="evenodd" stroke="#383838" stroke-width="1pt" marker-start="none" d="M 0,0 5,-5 -12.5,0 5,5 0,0 z" transform="matrix(0.4,0,0,0.4,4,0)"/></marker><marker id="marker3686" orient="auto" overflow="visible" refX="0" refY="0"><path id="path3688" fill-rule="evenodd" stroke="#383838" stroke-width="1pt" marker-start="none" d="M 0,0 5,-5 -12.5,0 5,5 0,0 z" transform="matrix(0.4,0,0,0.4,4,0)"/></marker><marker id="marker3690" orient="auto" overflow="visible" refX="0" refY="0"><path id="path3692" fill-rule="evenodd" stroke="#383838" stroke-width="1pt" marker-start="none" d="M 0,0 5,-5 -12.5,0 5,5 0,0 z" transform="matrix(0.4,0,0,0.4,4,0)"/></marker><marker id="Arrow1Mstart-1" orient="auto" overflow="visible" refX="0" refY="0"><path id="path4565-26" fill-rule="evenodd" stroke="#383838" stroke-width="1pt" marker-start="none" d="M 0,0 5,-5 -12.5,0 5,5 0,0 z" transform="matrix(0.4,0,0,0.4,4,0)"/></marker><marker id="marker3750" orient="auto" overflow="visible" refX="0" refY="0"><path id="path3752" fill-rule="evenodd" stroke="#383838" stroke-width="1pt" marker-start="none" d="M 0,0 5,-5 -12.5,0 5,5 0,0 z" transform="matrix(0.4,0,0,0.4,4,0)"/></marker></defs><metadata id="metadata_2.3"/><g id="layer5" transform="translate(-36.639543,-60.65625)"><rect id="rect3794-7-1-0" width="95.455" height="47.727" x="107.173" y="63.069" fill="#e8e8e8" fill-opacity="1" stroke="#383838" stroke-dasharray="none" stroke-dashoffset="0" stroke-linecap="round" stroke-linejoin="round" stroke-miterlimit="4" stroke-opacity="1" stroke-width=".812" display="inline" rx="6.764" ry="6.764"/><rect id="rect3794-7-1-0-3" width="95.455" height="47.727" x="460.354" y="63.069" fill="#e8e8e8" fill-opacity="1" stroke="#383838" stroke-dasharray="none" stroke-dashoffset="0" stroke-linecap="round" stroke-linejoin="round" stroke-miterlimit="4" stroke-opacity="1" stroke-width=".812" display="inline" rx="6.764" ry="6.764"/><rect id="rect3794-7-1-0-0" width="95.455" height="47.727" x="240.809" y="63.069" fill="#e8e8e8" fill-opacity="1" stroke="#383838" stroke-dasharray="none" stroke-dashoffset="0" stroke-linecap="round" stroke-linejoin="round" stroke-miterlimit="4" stroke-opacity="1" stroke-width=".812" display="inline" rx="6.764" ry="6.764"/><rect id="rect3794-7-1-0-0-6" width="95.455" height="47.727" x="84.263" y="148.979" fill="#e8e8e8" fill-opacity="1" stroke="#383838" stroke-dasharray="none" stroke-dashoffset="0" stroke-linecap="round" stroke-linejoin="round" stroke-miterlimit="4" stroke-opacity="1" stroke-width=".812" display="inline" rx="6.764" ry="6.764"/><rect id="rect3794-77-9-8-4" width="47.727" height="47.727" x="236.991" y="148.979" fill="none" stroke="#383838" stroke-dasharray="none" stroke-dashoffset="0" stroke-linecap="round" stroke-linejoin="round" stroke-miterlimit="4" stroke-opacity="1" stroke-width=".812" display="inline" rx="6.764" ry="6.764"/><rect id="rect3794-77-9-48" width="47.727" height="47.727" x="294.263" y="148.979" fill="none" stroke="#383838" stroke-dasharray="none" stroke-dashoffset="0" stroke-linecap="round" stroke-linejoin="round" stroke-miterlimit="4" stroke-opacity="1" stroke-width=".812" display="inline" rx="6.764" ry="6.764"/><rect id="rect3794-77-9-4-6" width="47.727" height="47.727" x="78.536" y="234.888" fill="none" stroke="#383838" stroke-dasharray="none" stroke-dashoffset="0" stroke-linecap="round" stroke-linejoin="round" stroke-miterlimit="4" stroke-opacity="1" stroke-width=".812" display="inline" rx="6.764" ry="6.764"/><rect id="rect3794-77-9-5-4" width="47.727" height="47.727" x="135.809" y="234.888" fill="none" stroke="#383838" stroke-dasharray="none" stroke-dashoffset="0" stroke-linecap="round" stroke-linejoin="round" stroke-miterlimit="4" stroke-opacity="1" stroke-width=".812" display="inline" rx="6.764" ry="6.764"/><rect id="rect3794-77-9" width="47.727" height="47.727" x="593.991" y="63.069" fill="none" stroke="#383838" stroke-dasharray="none" stroke-dashoffset="0" stroke-linecap="round" stroke-linejoin="round" stroke-miterlimit="4" stroke-opacity="1" stroke-width=".812" display="inline" rx="6.764" ry="6.764"/><rect id="rect3794-7-1-0-6" width="95.455" height="47.727" x="437.445" y="148.979" fill="#e8e8e8" fill-opacity="1" stroke="#383838" stroke-dasharray="none" stroke-dashoffset="0" stroke-linecap="round" stroke-linejoin="round" stroke-miterlimit="4" stroke-opacity="1" stroke-width=".812" display="inline" rx="6.764" ry="6.764"/><rect id="rect3794-7-1-0-0-5" width="95.455" height="47.727" x="571.082" y="148.979" fill="#e8e8e8" fill-opacity="1" stroke="#383838" stroke-dasharray="none" stroke-dashoffset="0" stroke-linecap="round" stroke-linejoin="round" stroke-miterlimit="4" stroke-opacity="1" stroke-width=".812" display="inline" rx="6.764" ry="6.764"/><rect id="rect3794-77-9-4" width="47.727" height="47.727" x="437.445" y="234.888" fill="none" stroke="#383838" stroke-dasharray="none" stroke-dashoffset="0" stroke-linecap="round" stroke-linejoin="round" stroke-miterlimit="4" stroke-opacity="1" stroke-width=".812" display="inline" rx="6.764" ry="6.764"/><rect id="rect3794-77-9-5" width="47.727" height="47.727" x="565.354" y="234.888" fill="none" stroke="#383838" stroke-dasharray="none" stroke-dashoffset="0" stroke-linecap="round" stroke-linejoin="round" stroke-miterlimit="4" stroke-opacity="1" stroke-width=".812" display="inline" rx="6.764" ry="6.764"/><rect id="rect3794-77-9-8" width="47.727" height="47.727" x="622.627" y="234.888" fill="none" stroke="#383838" stroke-dasharray="none" stroke-dashoffset="0" stroke-linecap="round" stroke-linejoin="round" stroke-miterlimit="4" stroke-opacity="1" stroke-width=".812" display="inline" rx="6.764" ry="6.764"/></g><g id="layer2" display="inline" transform="translate(-36.639543,-60.65625)"><path id="path4491-4-7" fill="#383838" fill-opacity="1" stroke="#383838" stroke-dasharray="none" stroke-dashoffset="0" stroke-linecap="round" stroke-linejoin="round" stroke-miterlimit="4" stroke-opacity="1" stroke-width="0" d="m 120,84.862183 a 2.5,2.5 0 1 1 -5,0 2.5,2.5 0 1 1 5,0 z" display="inline" transform="matrix(1.9090911,0,0,1.9090911,-92.3275,-74.174376)"/><path id="path4491-44-0" fill="#383838" fill-opacity="1" stroke="#383838" stroke-dasharray="none" stroke-dashoffset="0" stroke-linecap="round" stroke-linejoin="round" stroke-miterlimit="4" stroke-opacity="1" stroke-width="0" d="m 120,84.862183 a 2.5,2.5 0 1 1 -5,0 2.5,2.5 0 1 1 5,0 z" display="inline" transform="matrix(1.9090911,0,0,1.9090911,-45.554768,-74.122029)"/><path id="path4554-5-0" fill="none" stroke="#383838" stroke-dasharray="none" stroke-linecap="round" stroke-linejoin="round" stroke-miterlimit="4" stroke-opacity="1" stroke-width="1.488" marker-start="url(#Arrow1Mstart)" d="m 131.9907,145.16034 0,-53.454555" display="inline"/><path id="path4554-5-2-3" fill="none" stroke="#383838" stroke-dasharray="none" stroke-linecap="round" stroke-linejoin="round" stroke-miterlimit="4" stroke-opacity="1" stroke-width="1.488" marker-start="url(#Arrow1Mstart)" d="m 236.99071,87.887603 -53.45455,0" display="inline"/><path id="path4554-9-4" fill="none" stroke="#383838" stroke-dasharray="none" stroke-linecap="round" stroke-linejoin="round" stroke-miterlimit="4" stroke-opacity="1" stroke-width="1.488" marker-start="url(#Arrow1Mstart)" d="m 103.35434,87.887603 -63.000009,0" display="inline"/><path id="path4554-5-0-2-6" fill="none" stroke="#383838" stroke-dasharray="none" stroke-linecap="round" stroke-linejoin="round" stroke-miterlimit="4" stroke-opacity="1" stroke-width="1.488" marker-start="url(#Arrow1Mstart)" d="m 311.44527,145.16034 0,-53.454555" display="inline"/><path id="path4554-5-0-2" fill="none" stroke="#383838" stroke-dasharray="none" stroke-linecap="round" stroke-linejoin="round" stroke-miterlimit="4" stroke-opacity="1" stroke-width="1.488" marker-start="url(#Arrow1Mstart)" d="m 265.62708,145.16034 0,-53.454555" display="inline"/><path id="path4554-5-0-2-2" fill="none" stroke="#383838" stroke-dasharray="none" stroke-linecap="round" stroke-linejoin="round" stroke-miterlimit="4" stroke-opacity="1" stroke-width="1.488" marker-start="url(#Arrow1Mstart)" d="m 109.08161,231.06944 0,-53.45456" display="inline"/><path id="path4554-5-0-2-6-9" fill="none" stroke="#383838" stroke-dasharray="none" stroke-linecap="round" stroke-linejoin="round" stroke-miterlimit="4" stroke-opacity="1" stroke-width="1.488" marker-start="url(#Arrow1Mstart)" d="m 154.8998,231.06944 0,-53.45456" display="inline"/><path id="path4554-5-0-9" fill="none" stroke="#383838" stroke-dasharray="none" stroke-linecap="round" stroke-linejoin="round" stroke-miterlimit="4" stroke-opacity="1" stroke-width="1.488" marker-start="url(#Arrow1Mstart)" d="m 485.17256,145.16034 0,-53.454555" display="inline"/><path id="path4554-5-2-3-8" fill="none" stroke="#383838" stroke-dasharray="none" stroke-linecap="round" stroke-linejoin="round" stroke-miterlimit="4" stroke-opacity="1" stroke-width="1.488" marker-start="url(#Arrow1Mstart)" d="m 590.17257,87.887603 -53.45455,0" display="inline"/><path id="path4554-9-4-6" fill="none" stroke="#383838" stroke-dasharray="none" stroke-linecap="round" stroke-linejoin="round" stroke-miterlimit="4" stroke-opacity="1" stroke-width="1.488" marker-start="url(#Arrow1Mstart)" d="m 456.53619,87.887603 -63.00001,0" display="inline"/><path id="path4405-1-3-3" fill="none" stroke="#383838" stroke-dasharray="none" stroke-linecap="butt" stroke-linejoin="miter" stroke-miterlimit="4" stroke-opacity="1" stroke-width=".812" d="m 508.08165,63.069419 0,47.727281" display="inline"/><path id="path4405-1-3-8" fill="none" stroke="#383838" stroke-dasharray="none" stroke-linecap="butt" stroke-linejoin="miter" stroke-miterlimit="4" stroke-opacity="1" stroke-width=".812" d="m 288.53617,63.069419 0,47.727281" display="inline"/><path id="path4405-1-3" fill="none" stroke="#383838" stroke-dasharray="none" stroke-linecap="butt" stroke-linejoin="miter" stroke-miterlimit="4" stroke-opacity="1" stroke-width=".812" d="m 154.8998,63.069419 0,47.727281" display="inline"/><path id="path4405-1-3-8-1" fill="none" stroke="#383838" stroke-dasharray="none" stroke-linecap="butt" stroke-linejoin="miter" stroke-miterlimit="4" stroke-opacity="1" stroke-width=".812" d="m 131.9907,148.97852 0,47.72728" display="inline"/><path id="path4405-1-3-84" fill="none" stroke="#383838" stroke-dasharray="none" stroke-linecap="butt" stroke-linejoin="miter" stroke-miterlimit="4" stroke-opacity="1" stroke-width=".812" d="m 485.17256,148.97854 0,47.72727" display="inline"/><path id="path4405-1-3-8-6" fill="none" stroke="#383838" stroke-dasharray="none" stroke-linecap="butt" stroke-linejoin="miter" stroke-miterlimit="4" stroke-opacity="1" stroke-width=".812" d="m 618.80893,148.97852 0,47.72728" display="inline"/><path id="path4554-5-0-7" fill="none" stroke="#383838" stroke-dasharray="none" stroke-linecap="round" stroke-linejoin="round" stroke-miterlimit="4" stroke-opacity="1" stroke-width="1.488" marker-start="url(#Arrow1Mstart)" d="m 462.26346,231.06944 0,-53.45454" display="inline"/><path id="path4554-5-2-3-2" fill="none" stroke="#383838" stroke-dasharray="none" stroke-linecap="round" stroke-linejoin="round" stroke-miterlimit="4" stroke-opacity="1" stroke-width="1.488" marker-start="url(#Arrow1Mstart)" d="m 567.26347,173.79672 -53.45455,0" display="inline"/><path id="path4554-5-0-2-26" fill="none" stroke="#383838" stroke-dasharray="none" stroke-linecap="round" stroke-linejoin="round" stroke-miterlimit="4" stroke-opacity="1" stroke-width="1.488" marker-start="url(#Arrow1Mstart)" d="m 595.89984,231.06942 0,-53.45454" display="inline"/><path id="path4554-5-0-2-6-91" fill="none" stroke="#383838" stroke-dasharray="none" stroke-linecap="round" stroke-linejoin="round" stroke-miterlimit="4" stroke-opacity="1" stroke-width="1.488" marker-start="url(#Arrow1Mstart)" d="m 641.71803,231.06942 0,-53.45454" display="inline"/></g><g id="layer3" display="inline" transform="translate(-36.639543,-60.65625)"><path id="path4491-4-7-3" fill="#383838" fill-opacity="1" stroke="#383838" stroke-dasharray="none" stroke-dashoffset="0" stroke-linecap="round" stroke-linejoin="round" stroke-miterlimit="4" stroke-opacity="1" stroke-width="0" d="m 120,84.862183 a 2.5,2.5 0 1 1 -5,0 2.5,2.5 0 1 1 5,0 z" display="inline" transform="matrix(1.9090911,0,0,1.9090911,260.85435,-74.174376)"/><path id="path4491-44-0-7" fill="#383838" fill-opacity="1" stroke="#383838" stroke-dasharray="none" stroke-dashoffset="0" stroke-linecap="round" stroke-linejoin="round" stroke-miterlimit="4" stroke-opacity="1" stroke-width="0" d="m 120,84.862183 a 2.5,2.5 0 1 1 -5,0 2.5,2.5 0 1 1 5,0 z" display="inline" transform="matrix(1.9090911,0,0,1.9090911,307.62708,-74.122029)"/><path id="path4491-4-7-6" fill="#383838" fill-opacity="1" stroke="#383838" stroke-dasharray="none" stroke-dashoffset="0" stroke-linecap="round" stroke-linejoin="round" stroke-miterlimit="4" stroke-opacity="1" stroke-width="0" d="m 120,84.862183 a 2.5,2.5 0 1 1 -5,0 2.5,2.5 0 1 1 5,0 z" display="inline" transform="matrix(1.9090911,0,0,1.9090911,237.94526,11.734742)"/><path id="path4491-44-0-6" fill="#383838" fill-opacity="1" stroke="#383838" stroke-dasharray="none" stroke-dashoffset="0" stroke-linecap="round" stroke-linejoin="round" stroke-miterlimit="4" stroke-opacity="1" stroke-width="0" d="m 120,84.862183 a 2.5,2.5 0 1 1 -5,0 2.5,2.5 0 1 1 5,0 z" display="inline" transform="matrix(1.9090911,0,0,1.9090911,284.71799,11.78709)"/><text font-stretch="normal" style="line-height:125%;-inkscape-font-specification:Inconsolata LGC" id="text3007-0-2" x="454.968" y="266.456" fill="#383838" fill-opacity="1" stroke="none" font-family="Inconsolata LGC" font-size="20" font-style="normal" font-variant="normal" font-weight="normal" letter-spacing="0" word-spacing="0" xml:space="preserve"><tspan style="-inkscape-font-specification:Inconsolata LGC" id="tspan3009-8-5" x="454.968" y="266.456" font-weight="normal">1</tspan></text><text font-stretch="normal" style="line-height:125%;-inkscape-font-specification:Inconsolata LGC" id="text3007-0" x="611.513" y="94.638" fill="#383838" fill-opacity="1" stroke="none" font-family="Inconsolata LGC" font-size="20" font-style="normal" font-variant="normal" font-weight="normal" letter-spacing="0" word-spacing="0" xml:space="preserve"><tspan style="-inkscape-font-specification:Inconsolata LGC" id="tspan3009-8" x="611.513" y="94.638" font-weight="normal">4</tspan></text><path id="path4491-4-7-37-2" fill="#383838" fill-opacity="1" stroke="#383838" stroke-dasharray="none" stroke-dashoffset="0" stroke-linecap="round" stroke-linejoin="round" stroke-miterlimit="4" stroke-opacity="1" stroke-width="0" d="m 120,84.862183 a 2.5,2.5 0 1 1 -5,0 2.5,2.5 0 1 1 5,0 z" display="inline" transform="matrix(1.9090911,0,0,1.9090911,371.58164,10.832525)"/><path id="path4491-44-0-8-5" fill="#383838" fill-opacity="1" stroke="#383838" stroke-dasharray="none" stroke-dashoffset="0" stroke-linecap="round" stroke-linejoin="round" stroke-miterlimit="4" stroke-opacity="1" stroke-width="0" d="m 120,84.862183 a 2.5,2.5 0 1 1 -5,0 2.5,2.5 0 1 1 5,0 z" display="inline" transform="matrix(1.9090911,0,0,1.9090911,417.39982,10.832525)"/><text font-stretch="normal" style="line-height:125%;-inkscape-font-specification:Inconsolata LGC" id="text3007-0-7" x="582.877" y="266.456" fill="#383838" fill-opacity="1" stroke="none" font-family="Inconsolata LGC" font-size="20" font-style="normal" font-variant="normal" font-weight="normal" letter-spacing="0" word-spacing="0" xml:space="preserve"><tspan style="-inkscape-font-specification:Inconsolata LGC" id="tspan3009-8-52" x="582.877" y="266.456" font-weight="normal">2</tspan></text><text font-stretch="normal" style="line-height:125%;-inkscape-font-specification:Inconsolata LGC" id="text3007-0-6" x="640.15" y="266.456" fill="#383838" fill-opacity="1" stroke="none" font-family="Inconsolata LGC" font-size="20" font-style="normal" font-variant="normal" font-weight="normal" letter-spacing="0" word-spacing="0" xml:space="preserve"><tspan style="-inkscape-font-specification:Inconsolata LGC" id="tspan3009-8-6" x="640.15" y="266.456" font-weight="normal">3</tspan></text><path id="path4491-4-7-37-7" fill="#383838" fill-opacity="1" stroke="#383838" stroke-dasharray="none" stroke-dashoffset="0" stroke-linecap="round" stroke-linejoin="round" stroke-miterlimit="4" stroke-opacity="1" stroke-width="0" d="m 120,84.862183 a 2.5,2.5 0 1 1 -5,0 2.5,2.5 0 1 1 5,0 z" display="inline" transform="matrix(1.9090911,0,0,1.9090911,-115.23659,10.832525)"/><path id="path4491-44-0-8-2" fill="#383838" fill-opacity="1" stroke="#383838" stroke-dasharray="none" stroke-dashoffset="0" stroke-linecap="round" stroke-linejoin="round" stroke-miterlimit="4" stroke-opacity="1" stroke-width="0" d="m 120,84.862183 a 2.5,2.5 0 1 1 -5,0 2.5,2.5 0 1 1 5,0 z" display="inline" transform="matrix(1.9090911,0,0,1.9090911,-69.418407,10.832525)"/><path id="path4491-4-7-37" fill="#383838" fill-opacity="1" stroke="#383838" stroke-dasharray="none" stroke-dashoffset="0" stroke-linecap="round" stroke-linejoin="round" stroke-miterlimit="4" stroke-opacity="1" stroke-width="0" d="m 120,84.862183 a 2.5,2.5 0 1 1 -5,0 2.5,2.5 0 1 1 5,0 z" display="inline" transform="matrix(1.9090911,0,0,1.9090911,41.308876,-75.076574)"/><path id="path4491-44-0-8" fill="#383838" fill-opacity="1" stroke="#383838" stroke-dasharray="none" stroke-dashoffset="0" stroke-linecap="round" stroke-linejoin="round" stroke-miterlimit="4" stroke-opacity="1" stroke-width="0" d="m 120,84.862183 a 2.5,2.5 0 1 1 -5,0 2.5,2.5 0 1 1 5,0 z" display="inline" transform="matrix(1.9090911,0,0,1.9090911,87.127063,-75.076574)"/><text font-stretch="normal" style="line-height:125%;-inkscape-font-specification:Inconsolata LGC" id="text3007-0-6-7" x="254.513" y="180.547" fill="#383838" fill-opacity="1" stroke="none" font-family="Inconsolata LGC" font-size="20" font-style="normal" font-variant="normal" font-weight="normal" letter-spacing="0" word-spacing="0" xml:space="preserve"><tspan style="-inkscape-font-specification:Inconsolata LGC" id="tspan3009-8-6-4" x="254.513" y="180.547" font-weight="normal">3</tspan></text><text font-stretch="normal" style="line-height:125%;-inkscape-font-specification:Inconsolata LGC" id="text3007-0-3" x="311.786" y="180.547" fill="#383838" fill-opacity="1" stroke="none" font-family="Inconsolata LGC" font-size="20" font-style="normal" font-variant="normal" font-weight="normal" letter-spacing="0" word-spacing="0" xml:space="preserve"><tspan style="-inkscape-font-specification:Inconsolata LGC" id="tspan3009-8-3" x="311.786" y="180.547" font-weight="normal">4</tspan></text><text font-stretch="normal" style="line-height:125%;-inkscape-font-specification:Inconsolata LGC" id="text3007-0-2-1" x="96.059" y="266.456" fill="#383838" fill-opacity="1" stroke="none" font-family="Inconsolata LGC" font-size="20" font-style="normal" font-variant="normal" font-weight="normal" letter-spacing="0" word-spacing="0" xml:space="preserve"><tspan style="-inkscape-font-specification:Inconsolata LGC" id="tspan3009-8-5-5" x="96.059" y="266.456" font-weight="normal">1</tspan></text><text font-stretch="normal" style="line-height:125%;-inkscape-font-specification:Inconsolata LGC" id="text3007-0-7-6" x="153.332" y="266.456" fill="#383838" fill-opacity="1" stroke="none" font-family="Inconsolata LGC" font-size="20" font-style="normal" font-variant="normal" font-weight="normal" letter-spacing="0" word-spacing="0" xml:space="preserve"><tspan style="-inkscape-font-specification:Inconsolata LGC" id="tspan3009-8-52-6" x="153.332" y="266.456" font-weight="normal">2</tspan></text><text font-stretch="normal" style="line-height:125%;-inkscape-font-specification:Inconsolata LGC" id="text4089" x="40.354" y="330.342" fill="#383838" fill-opacity="1" stroke="none" font-family="Inconsolata LGC" font-size="20" font-style="normal" font-variant="normal" font-weight="normal" letter-spacing="0" word-spacing="0" xml:space="preserve"><tspan id="tspan4091" x="40.354" y="330.342">(cons (cons 1 2) </tspan><tspan id="tspan4095" x="40.354" y="356.592" xml:space="preserve"> (cons 3 4))</tspan></text><text font-stretch="normal" style="text-align:center;line-height:125%;-inkscape-font-specification:Inconsolata LGC Medium" id="text6463" x="383.429" y="330.362" fill="#383838" fill-opacity="1" stroke="none" font-family="Inconsolata LGC" font-size="20" font-style="normal" font-variant="normal" font-weight="500" letter-spacing="0" text-anchor="middle" word-spacing="0" xml:space="preserve"><tspan style="text-align:start" id="tspan6465" x="383.429" y="330.362" text-anchor="start">(cons (cons 1</tspan><tspan style="text-align:start" id="tspan6469" x="383.429" y="356.612" text-anchor="start" xml:space="preserve"> (cons 2 3)) </tspan><tspan style="text-align:start" id="tspan6479" x="383.429" y="382.862" text-anchor="start" xml:space="preserve"> 4)</tspan></text></g></svg>