<?xml-stylesheet href="../../css/fonts/fonts.css" type="text/css"?><svg xmlns="http://www.w3.org/2000/svg" xmlns:svg="http://www.w3.org/2000/svg" id="svg6372" width="100%" height="100%" preserveAspectRatio="xMinYMin meet" version="1.1" viewBox="0 0 481 139"><defs id="defs6374"><marker id="Arrow1Mstart" orient="auto" overflow="visible" refX="0" refY="0"><path id="path4565" fill="#383838" fill-rule="evenodd" stroke="#383838" stroke-width="1pt" marker-start="none" d="M 0,0 5,-5 -12.5,0 5,5 0,0 z" transform="matrix(0.4,0,0,0.4,4,0)"/></marker><marker id="marker6743" orient="auto" overflow="visible" refX="0" refY="0"><path id="path6745" fill-rule="evenodd" stroke="#383838" stroke-width="1pt" marker-start="none" d="M 0,0 5,-5 -12.5,0 5,5 0,0 z" transform="matrix(0.4,0,0,0.4,4,0)"/></marker><marker id="marker6747" orient="auto" overflow="visible" refX="0" refY="0"><path id="path6749" fill-rule="evenodd" stroke="#383838" stroke-width="1pt" marker-start="none" d="M 0,0 5,-5 -12.5,0 5,5 0,0 z" transform="matrix(0.4,0,0,0.4,4,0)"/></marker><marker id="Arrow1Mstart-4" orient="auto" overflow="visible" refX="0" refY="0"><path id="path4565-0" fill-rule="evenodd" stroke="#383838" stroke-width="1pt" marker-start="none" d="M 0,0 5,-5 -12.5,0 5,5 0,0 z" transform="matrix(0.4,0,0,0.4,4,0)"/></marker><marker id="marker6743-7" orient="auto" overflow="visible" refX="0" refY="0"><path id="path6745-4" fill-rule="evenodd" stroke="#383838" stroke-width="1pt" marker-start="none" d="M 0,0 5,-5 -12.5,0 5,5 0,0 z" transform="matrix(0.4,0,0,0.4,4,0)"/></marker><marker id="marker6747-5" orient="auto" overflow="visible" refX="0" refY="0"><path id="path6749-4" fill-rule="evenodd" stroke="#383838" stroke-width="1pt" marker-start="none" d="M 0,0 5,-5 -12.5,0 5,5 0,0 z" transform="matrix(0.4,0,0,0.4,4,0)"/></marker><marker id="Arrow1Mstart-49" orient="auto" overflow="visible" refX="0" refY="0"><path id="path4565-2" fill-rule="evenodd" stroke="#383838" stroke-width="1pt" marker-start="none" d="M 0,0 5,-5 -12.5,0 5,5 0,0 z" transform="matrix(0.4,0,0,0.4,4,0)"/></marker><marker id="marker6859" orient="auto" overflow="visible" refX="0" refY="0"><path id="path6861" fill-rule="evenodd" stroke="#383838" stroke-width="1pt" marker-start="none" d="M 0,0 5,-5 -12.5,0 5,5 0,0 z" transform="matrix(0.4,0,0,0.4,4,0)"/></marker><marker id="Arrow1Mstart-43" orient="auto" overflow="visible" refX="0" refY="0"><path id="path4565-25" fill-rule="evenodd" stroke="#383838" stroke-width="1pt" marker-start="none" d="M 0,0 5,-5 -12.5,0 5,5 0,0 z" transform="matrix(0.4,0,0,0.4,4,0)"/></marker><marker id="marker7309" orient="auto" overflow="visible" refX="0" refY="0"><path id="path7311" fill-rule="evenodd" stroke="#383838" stroke-width="1pt" marker-start="none" d="M 0,0 5,-5 -12.5,0 5,5 0,0 z" transform="matrix(0.4,0,0,0.4,4,0)"/></marker></defs><metadata id="metadata_2.24"/><g id="layer2" display="inline" transform="translate(-31.59375,-56.113906)"><rect id="rect3794-7-1-0" width="95.454" height="47.727" x="102.172" y="58.533" fill="#e8e8e8" fill-opacity="1" stroke="#383838" stroke-dasharray="none" stroke-dashoffset="0" stroke-linecap="round" stroke-linejoin="round" stroke-miterlimit="4" stroke-opacity="1" stroke-width=".812" rx="6.764" ry="6.764"/><rect id="rect3794-7-1-0-0" width="95.454" height="47.727" x="254.899" y="58.533" fill="#e8e8e8" fill-opacity="1" stroke="#383838" stroke-dasharray="none" stroke-dashoffset="0" stroke-linecap="round" stroke-linejoin="round" stroke-miterlimit="4" stroke-opacity="1" stroke-width=".812" rx="6.764" ry="6.764"/><rect id="rect3794-7-1-0-0-4" width="95.454" height="47.727" x="407.627" y="58.533" fill="#e8e8e8" fill-opacity="1" stroke="#383838" stroke-dasharray="none" stroke-dashoffset="0" stroke-linecap="round" stroke-linejoin="round" stroke-miterlimit="4" stroke-opacity="1" stroke-width=".812" rx="6.764" ry="6.764"/><rect id="rect3794-77-9-8-4" width="47.727" height="47.727" x="403.127" y="144.442" fill="none" stroke="#383838" stroke-dasharray="none" stroke-dashoffset="0" stroke-linecap="round" stroke-linejoin="round" stroke-miterlimit="4" stroke-opacity="1" stroke-width=".812" display="inline" rx="6.764" ry="6.764"/><rect id="rect3794-77-9-48" width="47.727" height="47.727" x="460.399" y="144.442" fill="none" stroke="#383838" stroke-dasharray="none" stroke-dashoffset="0" stroke-linecap="round" stroke-linejoin="round" stroke-miterlimit="4" stroke-opacity="1" stroke-width=".812" display="inline" rx="6.764" ry="6.764"/><rect id="rect3794-77-9-8-4-9" width="124.091" height="47.727" x="88.263" y="144.442" fill="none" stroke="#383838" stroke-dasharray="none" stroke-dashoffset="0" stroke-linecap="round" stroke-linejoin="round" stroke-miterlimit="4" stroke-opacity="1" stroke-width=".812" display="inline" rx="6.764" ry="6.764"/><rect id="rect3794-77-9-8-4-92" width="171.818" height="47.727" x="221.9" y="144.442" fill="none" stroke="#383838" stroke-dasharray="none" stroke-dashoffset="0" stroke-linecap="round" stroke-linejoin="round" stroke-miterlimit="4" stroke-opacity="1" stroke-width=".812" display="inline" rx="6.764" ry="6.764"/></g><g id="layer1" display="inline" transform="translate(-31.59375,-56.113906)"><path id="path4405-1-3" fill="none" stroke="#383838" stroke-dasharray="none" stroke-linecap="round" stroke-linejoin="round" stroke-miterlimit="4" stroke-opacity="1" stroke-width=".812" d="m 149.89962,58.532729 0,47.727201"/><path id="path4491-4-7" fill="#383838" fill-opacity="1" stroke="#383838" stroke-dasharray="none" stroke-dashoffset="0" stroke-linecap="round" stroke-linejoin="round" stroke-miterlimit="4" stroke-opacity="1" stroke-width="0" d="m 120,84.862183 a 2.5,2.5 0 1 1 -5,0 2.5,2.5 0 1 1 5,0 z" display="inline" transform="matrix(1.9090882,0,0,1.9090882,-97.327297,-78.71085)"/><path id="path4491-44-0" fill="#383838" fill-opacity="1" stroke="#383838" stroke-dasharray="none" stroke-dashoffset="0" stroke-linecap="round" stroke-linejoin="round" stroke-miterlimit="4" stroke-opacity="1" stroke-width="0" d="m 120,84.862183 a 2.5,2.5 0 1 1 -5,0 2.5,2.5 0 1 1 5,0 z" display="inline" transform="matrix(1.9090882,0,0,1.9090882,-50.554637,-78.65851)"/><path id="path4554-5-0" fill="none" stroke="#383838" stroke-dasharray="none" stroke-linecap="round" stroke-linejoin="round" stroke-miterlimit="4" stroke-opacity="1" stroke-width="1.488" marker-start="url(#Arrow1Mstart)" d="m 126.99056,140.62352 0,-53.454461" display="inline"/><path id="path4554-5-2-3" fill="none" stroke="#383838" stroke-dasharray="none" stroke-linecap="round" stroke-linejoin="round" stroke-miterlimit="4" stroke-opacity="1" stroke-width="1.488" marker-start="url(#Arrow1Mstart)" d="m 251.08129,83.350883 -72.54535,0" display="inline"/><path id="path4554-9-4" fill="none" stroke="#383838" stroke-dasharray="none" stroke-linecap="round" stroke-linejoin="round" stroke-miterlimit="4" stroke-opacity="1" stroke-width="1.488" marker-start="url(#Arrow1Mstart)" d="m 98.354239,83.350883 -62.999909,0" display="inline"/><path id="path4405-1-3-5" fill="none" stroke="#383838" stroke-dasharray="none" stroke-linecap="round" stroke-linejoin="round" stroke-miterlimit="4" stroke-opacity="1" stroke-width=".812" d="m 302.62667,58.532729 0,47.727201"/><path id="path4491-4-7-7" fill="#383838" fill-opacity="1" stroke="#383838" stroke-dasharray="none" stroke-dashoffset="0" stroke-linecap="round" stroke-linejoin="round" stroke-miterlimit="4" stroke-opacity="1" stroke-width="0" d="m 120,84.862183 a 2.5,2.5 0 1 1 -5,0 2.5,2.5 0 1 1 5,0 z" display="inline" transform="matrix(1.9090882,0,0,1.9090882,55.399755,-78.71086)"/><path id="path4491-44-0-4" fill="#383838" fill-opacity="1" stroke="#383838" stroke-dasharray="none" stroke-dashoffset="0" stroke-linecap="round" stroke-linejoin="round" stroke-miterlimit="4" stroke-opacity="1" stroke-width="0" d="m 120,84.862183 a 2.5,2.5 0 1 1 -5,0 2.5,2.5 0 1 1 5,0 z" display="inline" transform="matrix(1.9090882,0,0,1.9090882,102.17242,-78.65852)"/><path id="path4554-5-0-5" fill="none" stroke="#383838" stroke-dasharray="none" stroke-linecap="round" stroke-linejoin="round" stroke-miterlimit="4" stroke-opacity="1" stroke-width="1.488" marker-start="url(#Arrow1Mstart)" d="m 279.71761,140.62352 0,-53.454469" display="inline"/><path id="path4554-5-2-3-8" fill="none" stroke="#383838" stroke-dasharray="none" stroke-linecap="round" stroke-linejoin="round" stroke-miterlimit="4" stroke-opacity="1" stroke-width="1.488" marker-start="url(#Arrow1Mstart)" d="m 403.80834,83.350875 -72.54535,0" display="inline"/><path id="path4405-1-3-8" fill="none" stroke="#383838" stroke-dasharray="none" stroke-linecap="round" stroke-linejoin="round" stroke-miterlimit="4" stroke-opacity="1" stroke-width=".812" d="m 455.35372,58.532729 0,47.727201"/><path id="path4491-4-7-37" fill="#383838" fill-opacity="1" stroke="#383838" stroke-dasharray="none" stroke-dashoffset="0" stroke-linecap="round" stroke-linejoin="round" stroke-miterlimit="4" stroke-opacity="1" stroke-width="0" d="m 120,84.862183 a 2.5,2.5 0 1 1 -5,0 2.5,2.5 0 1 1 5,0 z" display="inline" transform="matrix(1.9090882,0,0,1.9090882,208.12681,-79.61305)"/><path id="path4491-44-0-8" fill="#383838" fill-opacity="1" stroke="#383838" stroke-dasharray="none" stroke-dashoffset="0" stroke-linecap="round" stroke-linejoin="round" stroke-miterlimit="4" stroke-opacity="1" stroke-width="0" d="m 120,84.862183 a 2.5,2.5 0 1 1 -5,0 2.5,2.5 0 1 1 5,0 z" display="inline" transform="matrix(1.9090882,0,0,1.9090882,253.94492,-79.61305)"/><path id="path4554-5-0-2" fill="none" stroke="#383838" stroke-dasharray="none" stroke-linecap="round" stroke-linejoin="round" stroke-miterlimit="4" stroke-opacity="1" stroke-width="1.488" marker-start="url(#Arrow1Mstart)" d="m 432.44467,140.62352 0,-53.454469" display="inline"/><path id="path4554-5-0-2-6" fill="none" stroke="#383838" stroke-dasharray="none" stroke-linecap="round" stroke-linejoin="round" stroke-miterlimit="4" stroke-opacity="1" stroke-width="1.488" marker-start="url(#Arrow1Mstart)" d="m 478.26278,140.62352 0,-53.454469" display="inline"/></g><text id="text3007-0-6-7" x="400.106" y="119.697" fill="#383838" fill-opacity="1" stroke="none" display="inline" font-family="Inconsolata LGC" font-size="20" font-stretch="normal" font-style="normal" font-variant="normal" font-weight="normal" letter-spacing="0" word-spacing="0" xml:space="preserve" style="line-height:125%;-inkscape-font-specification:Inconsolata LGC"><tspan id="tspan3009-8-6-4" x="395.986" y="119.697" font-weight="normal" text-anchor="middle" style="text-align:center;-inkscape-font-specification:Inconsolata LGC">3</tspan></text><text id="text3007-0-3" x="457.434" y="119.697" fill="#383838" fill-opacity="1" stroke="none" display="inline" font-family="Inconsolata LGC" font-size="20" font-stretch="normal" font-style="normal" font-variant="normal" font-weight="normal" letter-spacing="0" word-spacing="0" xml:space="preserve" style="line-height:125%;-inkscape-font-specification:Inconsolata LGC"><tspan id="tspan3009-8-3" x="452.754" y="119.697" font-weight="normal" text-anchor="middle" style="text-align:center;-inkscape-font-specification:Inconsolata LGC">4</tspan></text><text id="text3007-0-6-7-6" x="158.617" y="119.697" fill="#383838" fill-opacity="1" stroke="none" display="inline" font-family="Inconsolata LGC" font-size="20" font-stretch="normal" font-style="normal" font-variant="normal" font-weight="normal" letter-spacing="0" word-spacing="0" xml:space="preserve" style="line-height:125%;-inkscape-font-specification:Inconsolata LGC"><tspan id="tspan3009-8-6-4-0" x="118" y="119.697" font-style="normal" font-weight="normal" text-anchor="middle" style="text-align:center;-inkscape-font-specification:Inconsolata LGC">complex</tspan></text><text id="text3007-0-6-7-4" x="339.121" y="119.697" fill="#383838" fill-opacity="1" stroke="none" display="inline" font-family="Inconsolata LGC" font-size="20" font-stretch="normal" font-style="normal" font-variant="normal" font-weight="normal" letter-spacing="0" word-spacing="0" xml:space="preserve" style="line-height:125%;-inkscape-font-specification:Inconsolata LGC"><tspan id="tspan3009-8-6-4-9" x="275" y="119.697" font-weight="normal" text-anchor="middle" style="text-align:center;-inkscape-font-specification:Inconsolata LGC">rectangular</tspan></text></svg>