<?xml-stylesheet href="../../css/fonts/fonts.css" type="text/css"?><svg xmlns="http://www.w3.org/2000/svg" xmlns:svg="http://www.w3.org/2000/svg" id="svg4152" display="inline" preserveAspectRatio="xMinYMin meet" version="1.1" viewBox="0 0 691 448"><defs id="defs4154"><marker id="Arrow1Mend-6" orient="auto" overflow="visible" refX="0" refY="0"><path id="path3809-6-2" fill="#383838" fill-rule="evenodd" stroke="#383838" stroke-width="1pt" marker-start="none" d="M 0,0 5,-5 -12.5,0 5,5 0,0 z" transform="matrix(-0.4,0,0,-0.4,-4,0)"/></marker><marker id="marker5058" orient="auto" overflow="visible" refX="0" refY="0"><path id="path5060" fill="#383838" fill-rule="evenodd" stroke="#383838" stroke-width="1pt" marker-start="none" d="M 0,0 5,-5 -12.5,0 5,5 0,0 z" transform="matrix(-0.4,0,0,-0.4,-4,0)"/></marker><marker id="marker5062" orient="auto" overflow="visible" refX="0" refY="0"><path id="path5064" fill="#383838" fill-rule="evenodd" stroke="#383838" stroke-width="1pt" marker-start="none" d="M 0,0 5,-5 -12.5,0 5,5 0,0 z" transform="matrix(-0.4,0,0,-0.4,-4,0)"/></marker><marker id="marker5066" orient="auto" overflow="visible" refX="0" refY="0"><path id="path5068" fill="#383838" fill-rule="evenodd" stroke="#383838" stroke-width="1pt" marker-start="none" d="M 0,0 5,-5 -12.5,0 5,5 0,0 z" transform="matrix(-0.4,0,0,-0.4,-4,0)"/></marker><marker id="Arrow1Mend" orient="auto" overflow="visible" refX="0" refY="0"><path id="path3809" fill="#383838" fill-rule="evenodd" stroke="#383838" stroke-width="1pt" marker-start="none" d="M 0,0 5,-5 -12.5,0 5,5 0,0 z" transform="matrix(-0.4,0,0,-0.4,-4,0)"/></marker><marker id="marker5072" orient="auto" overflow="visible" refX="0" refY="0"><path id="path5074" fill="#383838" fill-rule="evenodd" stroke="#383838" stroke-width="1pt" marker-start="none" d="M 0,0 5,-5 -12.5,0 5,5 0,0 z" transform="matrix(-0.4,0,0,-0.4,-4,0)"/></marker><marker id="Arrow1Mend-3" orient="auto" overflow="visible" refX="0" refY="0"><path id="path3809-6" fill="#383838" fill-rule="evenodd" stroke="#383838" stroke-width="1pt" marker-start="none" d="M 0,0 5,-5 -12.5,0 5,5 0,0 z" transform="matrix(-0.4,0,0,-0.4,-4,0)"/></marker><marker id="Arrow1Mend-6-4" orient="auto" overflow="visible" refX="0" refY="0"><path id="path3809-6-2-9" fill="#383838" fill-rule="evenodd" stroke="#383838" stroke-width="1pt" marker-start="none" d="M 0,0 5,-5 -12.5,0 5,5 0,0 z" transform="matrix(-0.4,0,0,-0.4,-4,0)"/></marker><marker id="Arrow1Mend-4" orient="auto" overflow="visible" refX="0" refY="0"><path id="path3809-68" fill="#383838" fill-rule="evenodd" stroke="#383838" stroke-width="1pt" marker-start="none" d="M 0,0 5,-5 -12.5,0 5,5 0,0 z" transform="matrix(-0.4,0,0,-0.4,-4,0)"/></marker><marker id="Arrow1Mend-6-9" orient="auto" overflow="visible" refX="0" refY="0"><path id="path3809-6-2-3" fill="#383838" fill-rule="evenodd" stroke="#383838" stroke-width="1pt" marker-start="none" d="M 0,0 5,-5 -12.5,0 5,5 0,0 z" transform="matrix(-0.4,0,0,-0.4,-4,0)"/></marker><marker id="Arrow1Mend-6-5" orient="auto" overflow="visible" refX="0" refY="0"><path id="path3809-6-2-8" fill="#383838" fill-rule="evenodd" stroke="#383838" stroke-width="1pt" marker-start="none" d="M 0,0 5,-5 -12.5,0 5,5 0,0 z" transform="matrix(-0.4,0,0,-0.4,-4,0)"/></marker><marker id="marker6374" orient="auto" overflow="visible" refX="0" refY="0"><path id="path6376" fill="#383838" fill-rule="evenodd" stroke="#383838" stroke-width="1pt" marker-start="none" d="M 0,0 5,-5 -12.5,0 5,5 0,0 z" transform="matrix(-0.4,0,0,-0.4,-4,0)"/></marker><marker id="Arrow1Mend-6-8" orient="auto" overflow="visible" refX="0" refY="0"><path id="path3809-6-2-4" fill="#383838" fill-rule="evenodd" stroke="#383838" stroke-width="1pt" marker-start="none" d="M 0,0 5,-5 -12.5,0 5,5 0,0 z" transform="matrix(-0.4,0,0,-0.4,-4,0)"/></marker><marker id="Arrow1Mend-5" orient="auto" overflow="visible" refX="0" refY="0"><path id="path3809-0" fill="#383838" fill-rule="evenodd" stroke="#383838" stroke-width="1pt" marker-start="none" d="M 0,0 5,-5 -12.5,0 5,5 0,0 z" transform="matrix(-0.4,0,0,-0.4,-4,0)"/></marker><marker id="Arrow1Mend-61" orient="auto" overflow="visible" refX="0" refY="0"><path id="path3809-2" fill="#383838" fill-rule="evenodd" stroke="#383838" stroke-width="1pt" marker-start="none" d="M 0,0 5,-5 -12.5,0 5,5 0,0 z" transform="matrix(-0.4,0,0,-0.4,-4,0)"/></marker></defs><metadata id="metadata_3.10"/><g id="layer2" display="inline" transform="translate(-19.487418,-46.125)"><path id="rect5327" fill="#e8e8e8" fill-opacity="1" stroke="#383838" stroke-dasharray="none" stroke-dashoffset="0" stroke-linecap="round" stroke-linejoin="round" stroke-miterlimit="4" stroke-opacity="1" stroke-width="1.015" d="m 114.55683,51.63829 572.7268,0 c 5.72727,0 9.54544,3.81818 9.54544,9.54545 l 0,110.72717 c 0,5.72727 -3.81817,9.54545 -9.54544,9.54545 l -572.7268,0 c -5.72727,0 -9.54545,-3.81818 -9.54545,-9.54545 l 0,-110.72717 c 0,-5.72727 3.81818,-9.54545 9.54545,-9.54545 z"/><path id="path3795" fill="none" stroke="#383838" stroke-dasharray="none" stroke-linecap="round" stroke-linejoin="round" stroke-miterlimit="4" stroke-opacity="1" stroke-width="1.488" marker-end="url(#Arrow1Mend)" d="m 156.5568,334.1835 139.36352,0 c 5.89773,0 9.71591,-3.81818 9.71591,-9.54544 l 0,-35.79543"/><path id="path3795-5" fill="none" stroke="#383838" stroke-dasharray="none" stroke-linecap="round" stroke-linejoin="round" stroke-miterlimit="4" stroke-opacity="1" stroke-width="1.488" marker-end="url(#Arrow1Mend)" d="m 176.60223,152.82002 -33.2386,0 c -5.89773,0 -9.71591,3.81818 -9.71591,9.54544 l 0,142.4658"/><path id="path4451" fill="none" stroke="#383838" stroke-dasharray="none" stroke-linecap="round" stroke-linejoin="round" stroke-miterlimit="4" stroke-opacity="1" stroke-width="1.488" marker-end="url(#Arrow1Mend-6)" d="m 57.28415,152.82002 43.90905,0"/><path id="path4451-5" fill="none" stroke="#383838" stroke-dasharray="none" stroke-linecap="round" stroke-linejoin="round" stroke-miterlimit="4" stroke-opacity="1" stroke-width="1.488" marker-end="url(#Arrow1Mend-6)" d="m 110.94317,339.0585 0,81.03402"/><path id="path5407" fill="#383838" fill-opacity="1" stroke="#383838" stroke-dasharray="none" stroke-dashoffset="0" stroke-linecap="round" stroke-linejoin="round" stroke-miterlimit="4" stroke-opacity="1" stroke-width=".354" d="m 190,179.86218 a 2.5,2.5 0 1 1 -5,0 2.5,2.5 0 1 1 5,0 z" transform="matrix(1.9090893,0,0,1.9090893,-247.01105,-9.08717)"/><path id="path5407-7" fill="#383838" fill-opacity="1" stroke="#383838" stroke-dasharray="none" stroke-dashoffset="0" stroke-linecap="round" stroke-linejoin="round" stroke-miterlimit="4" stroke-opacity="1" stroke-width=".354" d="m 190,179.86218 a 2.5,2.5 0 1 1 -5,0 2.5,2.5 0 1 1 5,0 z" transform="matrix(1.9090893,0,0,1.9090893,-202.24972,-9.08717)"/><path id="path5435-9" fill="none" stroke="#383838" stroke-dasharray="none" stroke-dashoffset="0" stroke-linecap="round" stroke-linejoin="round" stroke-miterlimit="4" stroke-opacity="1" stroke-width=".508" d="m 199.17081,180.36218 a 11.170808,11.170808 0 1 1 -22.34162,0 11.170808,11.170808 0 1 1 22.34162,0 z" transform="matrix(1.995866,0,0,1.995866,-219.41603,-25.69296)"/><path id="path5435-9-6" fill="none" stroke="#383838" stroke-dasharray="none" stroke-dashoffset="0" stroke-linecap="round" stroke-linejoin="round" stroke-miterlimit="4" stroke-opacity="1" stroke-width=".508" d="m 199.17081,180.36218 a 11.170808,11.170808 0 1 1 -22.34162,0 11.170808,11.170808 0 1 1 22.34162,0 z" transform="matrix(1.995866,0,0,1.995866,-264.27962,-25.69295)"/><path id="rect5327-2" fill="#e8e8e8" fill-opacity="1" stroke="#383838" stroke-dasharray="none" stroke-dashoffset="0" stroke-linecap="round" stroke-linejoin="round" stroke-miterlimit="4" stroke-opacity="1" stroke-width="1.015" d="m 219.55674,229.18359 171.81804,0 c 5.72727,0 9.54545,3.81818 9.54545,9.54545 l 0,38.18178 c 0,5.72727 -3.81818,9.54545 -9.54545,9.54545 l -171.81804,0 c -5.72726,0 -9.54544,-3.81818 -9.54544,-9.54545 l 0,-38.18178 c 0,-5.72727 3.81818,-9.54545 9.54544,-9.54545 z"/><path id="path4451-8" fill="none" stroke="#383838" stroke-dasharray="none" stroke-linecap="round" stroke-linejoin="round" stroke-miterlimit="4" stroke-opacity="1" stroke-width="1.488" marker-end="url(#Arrow1Mend-6)" d="m 187.10222,257.81993 19.0909,0"/><path id="path4451-8-3" fill="none" stroke="#383838" stroke-dasharray="none" stroke-linecap="round" stroke-linejoin="round" stroke-miterlimit="4" stroke-opacity="1" stroke-width="1.488" marker-end="url(#Arrow1Mend-6)" d="m 305.46576,228.70147 0,-43.42693"/><path id="path3795-5-0" fill="none" stroke="#383838" stroke-dasharray="none" stroke-linecap="round" stroke-linejoin="round" stroke-miterlimit="4" stroke-opacity="1" stroke-width="1.488" marker-end="url(#Arrow1Mend)" d="m 233.1931,118.45642 186.81802,0 c 5.89773,0 9.71591,3.81817 9.71591,9.54544 l 0,177.1703"/><path id="rect5327-2-0" fill="#e8e8e8" fill-opacity="1" stroke="#383838" stroke-dasharray="none" stroke-dashoffset="0" stroke-linecap="round" stroke-linejoin="round" stroke-miterlimit="4" stroke-opacity="1" stroke-width="1.015" d="m 515.46559,229.18359 171.81804,0 c 5.72727,0 9.54544,3.81818 9.54544,9.54545 l 0,38.18178 c 0,5.72727 -3.81817,9.54545 -9.54544,9.54545 l -171.81804,0 c -5.72727,0 -9.54545,-3.81818 -9.54545,-9.54545 l 0,-38.18178 c 0,-5.72727 3.81818,-9.54545 9.54545,-9.54545 z"/><path id="path5435-9-9" fill="none" stroke="#383838" stroke-dasharray="none" stroke-dashoffset="0" stroke-linecap="round" stroke-linejoin="round" stroke-miterlimit="4" stroke-opacity="1" stroke-width=".508" d="m 199.17081,180.36218 a 11.170807,11.170807 0 1 1 -22.34162,0 11.170807,11.170807 0 1 1 22.34162,0 z" transform="matrix(1.995866,0,0,1.995866,76.4928,-25.69295)"/><path id="path5435-9-6-5" fill="none" stroke="#383838" stroke-dasharray="none" stroke-dashoffset="0" stroke-linecap="round" stroke-linejoin="round" stroke-miterlimit="4" stroke-opacity="1" stroke-width=".508" d="m 199.17081,180.36218 a 11.170808,11.170808 0 1 1 -22.34162,0 11.170808,11.170808 0 1 1 22.34162,0 z" transform="matrix(1.995866,0,0,1.995866,31.62922,-25.69293)"/><path id="path5407-1" fill="#383838" fill-opacity="1" stroke="#383838" stroke-dasharray="none" stroke-dashoffset="0" stroke-linecap="round" stroke-linejoin="round" stroke-miterlimit="4" stroke-opacity="1" stroke-width=".354" d="m 190,179.86218 a 2.5,2.5 0 1 1 -5,0 2.5,2.5 0 1 1 5,0 z" transform="matrix(1.9090893,0,0,1.9090893,48.89779,-9.08715)"/><path id="path5407-7-9" fill="#383838" fill-opacity="1" stroke="#383838" stroke-dasharray="none" stroke-dashoffset="0" stroke-linecap="round" stroke-linejoin="round" stroke-miterlimit="4" stroke-opacity="1" stroke-width=".354" d="m 190,179.86218 a 2.5,2.5 0 1 1 -5,0 2.5,2.5 0 1 1 5,0 z" transform="matrix(1.9090893,0,0,1.9090893,93.65912,-9.08715)"/><path id="path4451-5-1" fill="none" stroke="#383838" stroke-dasharray="none" stroke-linecap="round" stroke-linejoin="round" stroke-miterlimit="4" stroke-opacity="1" stroke-width="1.488" marker-end="url(#Arrow1Mend-6)" d="m 407.0566,339.0585 0,33.30679 c 0,5.72727 -3.81818,9.54545 -9.34091,9.54545 l -231.95435,0 c -5.82956,0 -9.61364,3.97907 -9.61364,9.71591 l 0,28.46587"/><path id="path3795-2" fill="none" stroke="#383838" stroke-dasharray="none" stroke-linecap="round" stroke-linejoin="round" stroke-miterlimit="4" stroke-opacity="1" stroke-width="1.488" marker-end="url(#Arrow1Mend)" d="m 452.05654,334.1835 139.77262,0 c 5.89773,0 9.71591,-3.81818 9.71591,-9.54544 l 0,-35.79543"/><path id="path4451-8-3-2" fill="none" stroke="#383838" stroke-dasharray="none" stroke-linecap="round" stroke-linejoin="round" stroke-miterlimit="4" stroke-opacity="1" stroke-width="1.488" marker-end="url(#Arrow1Mend-6)" d="m 601.37461,228.70147 0,-43.42693"/></g><g id="layer3" display="inline" transform="translate(-19.487418,-46.125)"><text font-stretch="normal" style="text-align:start;line-height:125%;-inkscape-font-specification:Inconsolata LGC" id="text6301" x="156.557" y="264.911" fill="#383838" fill-opacity="1" stroke="none" font-family="Inconsolata LGC" font-size="20" font-style="normal" font-variant="normal" font-weight="normal" letter-spacing="0" text-anchor="start" word-spacing="0" xml:space="preserve"><tspan id="tspan6303" x="156.557" y="264.911">E1</tspan></text><text font-stretch="normal" style="text-align:start;line-height:125%;-inkscape-font-specification:Inconsolata LGC" id="text5493" x="189.011" y="124.184" fill="#383838" fill-opacity="1" stroke="none" font-family="Inconsolata LGC" font-size="20" font-style="normal" font-variant="normal" font-weight="normal" letter-spacing="0" text-anchor="start" word-spacing="0" xml:space="preserve"><tspan id="tspan5495" x="189.011" y="124.184">W2:</tspan></text><text font-stretch="normal" style="text-align:start;line-height:125%;-inkscape-font-specification:Inconsolata LGC" id="text5473" x="189.011" y="158.547" fill="#383838" fill-opacity="1" stroke="none" font-family="Inconsolata LGC" font-size="20" font-style="normal" font-variant="normal" font-weight="normal" letter-spacing="0" text-anchor="start" word-spacing="0" xml:space="preserve"><tspan id="tspan5475" x="189.011" y="158.547">W1:</tspan></text><text font-stretch="normal" style="text-align:start;line-height:120.00000477%;-inkscape-font-specification:Inconsolata LGC" id="text5477" x="30.693" y="111.283" fill="#383838" fill-opacity="1" stroke="none" font-family="Inconsolata LGC" font-size="20" font-style="normal" font-variant="normal" font-weight="normal" letter-spacing="0" text-anchor="start" word-spacing="0" xml:space="preserve"><tspan style="line-height:120.00000477%;-inkscape-font-specification:Linux Biolinum O" id="tspan5479" x="30.693" y="111.283" font-family="Linux Biolinum O" font-size="24.818" font-stretch="normal" font-style="normal" font-variant="normal" font-weight="normal">global</tspan><tspan style="line-height:120.00000477%;-inkscape-font-specification:Linux Biolinum O" id="tspan5507" x="30.693" y="141.065" font-family="Linux Biolinum O" font-size="24.818" font-stretch="normal" font-style="normal" font-variant="normal" font-weight="normal">env</tspan></text><text font-stretch="normal" style="text-align:center;line-height:125%;-inkscape-font-specification:Inconsolata LGC" id="text6297" x="305.466" y="265.122" fill="#383838" fill-opacity="1" stroke="none" font-family="Inconsolata LGC" font-size="20" font-style="normal" font-variant="normal" font-weight="normal" letter-spacing="0" text-anchor="middle" word-spacing="0" xml:space="preserve"><tspan id="tspan6299" x="305.466" y="265.122">balance: 50</tspan></text><text font-stretch="normal" style="text-align:start;line-height:120.00000477%;-inkscape-font-specification:Sans" id="text5497" x="72.537" y="448.729" fill="#383838" fill-opacity="1" stroke="none" font-family="Linux Biolinum O" font-size="24.818" font-style="normal" font-variant="normal" font-weight="normal" letter-spacing="0" text-anchor="start" word-spacing="0" xml:space="preserve"><tspan style="line-height:120.00000477%" id="tspan5499" x="72.537" y="448.729">parameters: <tspan style="line-height:120.00000477%;-inkscape-font-specification:Inconsolata LGC" id="tspan5868" dx="4.773" font-family="Inconsolata LGC" font-size="20" font-stretch="normal" font-style="normal" font-variant="normal" font-weight="normal">amount</tspan></tspan><tspan style="line-height:120.00000477%;-inkscape-font-specification:Sans" id="tspan5914" x="72.537" y="481.977" font-family="Linux Biolinum O" font-stretch="normal" font-style="normal" font-variant="normal" font-weight="normal">body: <tspan style="line-height:120.00000477%;-inkscape-font-specification:Inconsolata LGC" id="tspan5503" font-family="Inconsolata LGC" font-size="20" font-stretch="normal" font-style="normal" font-variant="normal" font-weight="normal">...</tspan></tspan></text><path id="path4451-8-2" fill="none" stroke="#383838" stroke-dasharray="none" stroke-linecap="round" stroke-linejoin="round" stroke-miterlimit="4" stroke-opacity="1" stroke-width="1.488" marker-end="url(#Arrow1Mend-6)" d="m 483.01107,257.81993 19.09089,0"/><text font-stretch="normal" style="text-align:start;line-height:125%;-inkscape-font-specification:Inconsolata LGC" id="text6301-1" x="452.466" y="264.911" fill="#383838" fill-opacity="1" stroke="none" font-family="Inconsolata LGC" font-size="20" font-style="normal" font-variant="normal" font-weight="normal" letter-spacing="0" text-anchor="start" word-spacing="0" xml:space="preserve"><tspan id="tspan6303-0" x="452.466" y="264.911">E2</tspan></text><text font-stretch="normal" style="text-align:center;line-height:125%;-inkscape-font-specification:Inconsolata LGC" id="text6297-6" x="601.375" y="265.122" fill="#383838" fill-opacity="1" stroke="none" font-family="Inconsolata LGC" font-size="20" font-style="normal" font-variant="normal" font-weight="normal" letter-spacing="0" text-anchor="middle" word-spacing="0" xml:space="preserve"><tspan id="tspan6299-0" x="601.375" y="265.122">balance: 100</tspan></text><text font-stretch="normal" style="text-align:start;line-height:125%;-inkscape-font-specification:Inconsolata LGC" id="text5493-2" x="189.011" y="89.82" fill="#383838" fill-opacity="1" stroke="none" font-family="Inconsolata LGC" font-size="20" font-style="normal" font-variant="normal" font-weight="normal" letter-spacing="0" text-anchor="start" word-spacing="0" xml:space="preserve"><tspan id="tspan5495-1" x="189.011" y="89.82">make-withdraw: ...</tspan></text></g></svg>