<?xml-stylesheet href="../../css/fonts/fonts.css" type="text/css"?><svg xmlns="http://www.w3.org/2000/svg" xmlns:svg="http://www.w3.org/2000/svg" id="svg3493" preserveAspectRatio="xMinYMin meet" version="1.1" viewBox="0 0 558 438"><defs id="defs3495"><marker id="Arrow1Mstart" orient="auto" overflow="visible" refX="0" refY="0"><path id="path4565" fill="#383838" fill-rule="evenodd" stroke="#383838" stroke-width="1pt" marker-start="none" d="M 0,0 5,-5 -12.5,0 5,5 0,0 z" transform="matrix(0.4,0,0,0.4,4,0)"/></marker><marker id="marker4296" orient="auto" overflow="visible" refX="0" refY="0"><path id="path4298" fill="#383838" fill-rule="evenodd" stroke="#383838" stroke-width="1pt" marker-start="none" d="M 0,0 5,-5 -12.5,0 5,5 0,0 z" transform="matrix(0.4,0,0,0.4,4,0)"/></marker><marker id="marker4300" orient="auto" overflow="visible" refX="0" refY="0"><path id="path4302" fill="#383838" fill-rule="evenodd" stroke="#383838" stroke-width="1pt" marker-start="none" d="M 0,0 5,-5 -12.5,0 5,5 0,0 z" transform="matrix(0.4,0,0,0.4,4,0)"/></marker><marker id="marker4304" orient="auto" overflow="visible" refX="0" refY="0"><path id="path4306" fill="#383838" fill-rule="evenodd" stroke="#383838" stroke-width="1pt" marker-start="none" d="M 0,0 5,-5 -12.5,0 5,5 0,0 z" transform="matrix(0.4,0,0,0.4,4,0)"/></marker><marker id="marker4308" orient="auto" overflow="visible" refX="0" refY="0"><path id="path4310" fill="#383838" fill-rule="evenodd" stroke="#383838" stroke-width="1pt" marker-start="none" d="M 0,0 5,-5 -12.5,0 5,5 0,0 z" transform="matrix(0.4,0,0,0.4,4,0)"/></marker><marker id="Arrow1Mstart-5" orient="auto" overflow="visible" refX="0" refY="0"><path id="path4565-7" fill="#383838" fill-rule="evenodd" stroke="#383838" stroke-width="1pt" marker-start="none" d="M 0,0 5,-5 -12.5,0 5,5 0,0 z" transform="matrix(0.4,0,0,0.4,4,0)"/></marker><marker id="marker4296-0" orient="auto" overflow="visible" refX="0" refY="0"><path id="path4298-7" fill="#383838" fill-rule="evenodd" stroke="#383838" stroke-width="1pt" marker-start="none" d="M 0,0 5,-5 -12.5,0 5,5 0,0 z" transform="matrix(0.4,0,0,0.4,4,0)"/></marker><marker id="marker4300-8" orient="auto" overflow="visible" refX="0" refY="0"><path id="path4302-9" fill="#383838" fill-rule="evenodd" stroke="#383838" stroke-width="1pt" marker-start="none" d="M 0,0 5,-5 -12.5,0 5,5 0,0 z" transform="matrix(0.4,0,0,0.4,4,0)"/></marker><marker id="marker4304-9" orient="auto" overflow="visible" refX="0" refY="0"><path id="path4306-3" fill="#383838" fill-rule="evenodd" stroke="#383838" stroke-width="1pt" marker-start="none" d="M 0,0 5,-5 -12.5,0 5,5 0,0 z" transform="matrix(0.4,0,0,0.4,4,0)"/></marker><marker id="marker4308-9" orient="auto" overflow="visible" refX="0" refY="0"><path id="path4310-4" fill="#383838" fill-rule="evenodd" stroke="#383838" stroke-width="1pt" marker-start="none" d="M 0,0 5,-5 -12.5,0 5,5 0,0 z" transform="matrix(0.4,0,0,0.4,4,0)"/></marker><marker id="Arrow1Mstart-6" orient="auto" overflow="visible" refX="0" refY="0"><path id="path4565-5" fill="#383838" fill-rule="evenodd" stroke="#383838" stroke-width="1pt" marker-start="none" d="M 0,0 5,-5 -12.5,0 5,5 0,0 z" transform="matrix(0.4,0,0,0.4,4,0)"/></marker><marker id="Arrow1Mstart-8" orient="auto" overflow="visible" refX="0" refY="0"><path id="path4565-1" fill="#383838" fill-rule="evenodd" stroke="#383838" stroke-width="1pt" marker-start="none" d="M 0,0 5,-5 -12.5,0 5,5 0,0 z" transform="matrix(0.4,0,0,0.4,4,0)"/></marker><marker id="marker4752" orient="auto" overflow="visible" refX="0" refY="0"><path id="path4754" fill="#383838" fill-rule="evenodd" stroke="#383838" stroke-width="1pt" marker-start="none" d="M 0,0 5,-5 -12.5,0 5,5 0,0 z" transform="matrix(0.4,0,0,0.4,4,0)"/></marker><marker id="marker4756" orient="auto" overflow="visible" refX="0" refY="0"><path id="path4758" fill="#383838" fill-rule="evenodd" stroke="#383838" stroke-width="1pt" marker-start="none" d="M 0,0 5,-5 -12.5,0 5,5 0,0 z" transform="matrix(0.4,0,0,0.4,4,0)"/></marker><marker id="Arrow1Mstart-4" orient="auto" overflow="visible" refX="0" refY="0"><path id="path4565-4" fill="#383838" fill-rule="evenodd" stroke="#383838" stroke-width="1pt" marker-start="none" d="M 0,0 5,-5 -12.5,0 5,5 0,0 z" transform="matrix(0.4,0,0,0.4,4,0)"/></marker><marker id="marker4813" orient="auto" overflow="visible" refX="0" refY="0"><path id="path4815" fill="#383838" fill-rule="evenodd" stroke="#383838" stroke-width="1pt" marker-start="none" d="M 0,0 5,-5 -12.5,0 5,5 0,0 z" transform="matrix(0.4,0,0,0.4,4,0)"/></marker><marker id="marker4817" orient="auto" overflow="visible" refX="0" refY="0"><path id="path4819" fill="#383838" fill-rule="evenodd" stroke="#383838" stroke-width="1pt" marker-start="none" d="M 0,0 5,-5 -12.5,0 5,5 0,0 z" transform="matrix(0.4,0,0,0.4,4,0)"/></marker><marker id="Arrow1Mstart-9" orient="auto" overflow="visible" refX="0" refY="0"><path id="path4565-8" fill="#383838" fill-rule="evenodd" stroke="#383838" stroke-width="1pt" marker-start="none" d="M 0,0 5,-5 -12.5,0 5,5 0,0 z" transform="matrix(0.4,0,0,0.4,4,0)"/></marker><marker id="marker4813-5" orient="auto" overflow="visible" refX="0" refY="0"><path id="path4815-5" fill="#383838" fill-rule="evenodd" stroke="#383838" stroke-width="1pt" marker-start="none" d="M 0,0 5,-5 -12.5,0 5,5 0,0 z" transform="matrix(0.4,0,0,0.4,4,0)"/></marker><marker id="marker4817-2" orient="auto" overflow="visible" refX="0" refY="0"><path id="path4819-1" fill="#383838" fill-rule="evenodd" stroke="#383838" stroke-width="1pt" marker-start="none" d="M 0,0 5,-5 -12.5,0 5,5 0,0 z" transform="matrix(0.4,0,0,0.4,4,0)"/></marker><marker id="Arrow1Mstart-1" orient="auto" overflow="visible" refX="0" refY="0"><path id="path4565-6" fill="#383838" fill-rule="evenodd" stroke="#383838" stroke-width="1pt" marker-start="none" d="M 0,0 5,-5 -12.5,0 5,5 0,0 z" transform="matrix(0.4,0,0,0.4,4,0)"/></marker></defs><metadata id="metadata_3.13"/><g id="layer4" display="inline" transform="translate(-119.1193,-74.0625)"><rect id="rect3794-7-1-0-2" width="95.454" height="47.727" x="216.71" y="77.576" fill="#e8e8e8" fill-opacity="1" stroke="#383838" stroke-dasharray="none" stroke-dashoffset="0" stroke-linecap="round" stroke-linejoin="round" stroke-miterlimit="4" stroke-opacity="1" stroke-width="1.015" rx="6.764" ry="6.764"/><rect id="rect3794-7-1-0" width="95.454" height="47.727" x="417.164" y="77.576" fill="#e8e8e8" fill-opacity="1" stroke="#383838" stroke-dasharray="none" stroke-dashoffset="0" stroke-linecap="round" stroke-linejoin="round" stroke-miterlimit="4" stroke-opacity="1" stroke-width="1.015" rx="6.764" ry="6.764"/><rect id="rect3794-7-1-0-6" width="95.454" height="47.727" x="569.891" y="77.576" fill="#e8e8e8" fill-opacity="1" stroke="#383838" stroke-dasharray="none" stroke-dashoffset="0" stroke-linecap="round" stroke-linejoin="round" stroke-miterlimit="4" stroke-opacity="1" stroke-width="1.015" rx="6.764" ry="6.764"/><rect id="rect3794-7-1-0-5" width="95.454" height="47.727" x="417.164" y="230.303" fill="#e8e8e8" fill-opacity="1" stroke="#383838" stroke-dasharray="none" stroke-dashoffset="0" stroke-linecap="round" stroke-linejoin="round" stroke-miterlimit="4" stroke-opacity="1" stroke-width="1.015" rx="6.764" ry="6.764"/><rect id="rect3794-7-1-0-6-6" width="95.454" height="47.727" x="569.891" y="230.303" fill="#e8e8e8" fill-opacity="1" stroke="#383838" stroke-dasharray="none" stroke-dashoffset="0" stroke-linecap="round" stroke-linejoin="round" stroke-miterlimit="4" stroke-opacity="1" stroke-width="1.015" rx="6.764" ry="6.764"/><rect id="rect3794-7-1-0-0" width="95.454" height="47.727" x="417.164" y="383.03" fill="#e8e8e8" fill-opacity="1" stroke="#383838" stroke-dasharray="none" stroke-dashoffset="0" stroke-linecap="round" stroke-linejoin="round" stroke-miterlimit="4" stroke-opacity="1" stroke-width="1.015" rx="6.764" ry="6.764"/><rect id="rect3794-7-1-0-6-67" width="95.454" height="47.727" x="569.891" y="383.03" fill="#e8e8e8" fill-opacity="1" stroke="#383838" stroke-dasharray="none" stroke-dashoffset="0" stroke-linecap="round" stroke-linejoin="round" stroke-miterlimit="4" stroke-opacity="1" stroke-width="1.015" rx="6.764" ry="6.764"/></g><g id="layer2" display="inline" transform="translate(-119.1193,-74.0625)"><rect id="rect3794-77-9-4" width="47.727" height="47.727" x="417.164" y="153.94" fill="none" stroke="#383838" stroke-dasharray="none" stroke-dashoffset="0" stroke-linecap="round" stroke-linejoin="round" stroke-miterlimit="4" stroke-opacity="1" stroke-width="1.015" display="inline" rx="6.764" ry="6.764"/><rect id="rect3794-77-9-5" width="47.727" height="47.727" x="569.891" y="153.94" fill="none" stroke="#383838" stroke-dasharray="none" stroke-dashoffset="0" stroke-linecap="round" stroke-linejoin="round" stroke-miterlimit="4" stroke-opacity="1" stroke-width="1.015" display="inline" rx="6.764" ry="6.764"/><path id="path4554-5-2-3" fill="none" stroke="#383838" stroke-dasharray="none" stroke-linecap="round" stroke-linejoin="round" stroke-miterlimit="4" stroke-opacity="1" stroke-width="1.488" marker-start="url(#Arrow1Mstart)" d="m 566.07244,102.39417 -72.5453,0" display="inline"/><path id="path4491-44-0" fill="#383838" fill-opacity="1" stroke="#383838" stroke-dasharray="none" stroke-dashoffset="0" stroke-linecap="round" stroke-linejoin="round" stroke-miterlimit="4" stroke-opacity="1" stroke-width="0" d="m 120,84.862183 a 2.5,2.5 0 1 1 -5,0 2.5,2.5 0 1 1 5,0 z" display="inline" transform="matrix(1.9090869,0,0,1.9090869,264.43672,-59.6151)"/><path id="path4491-4-7" fill="#383838" fill-opacity="1" stroke="#383838" stroke-dasharray="none" stroke-dashoffset="0" stroke-linecap="round" stroke-linejoin="round" stroke-miterlimit="4" stroke-opacity="1" stroke-width="0" d="m 120,84.862183 a 2.5,2.5 0 1 1 -5,0 2.5,2.5 0 1 1 5,0 z" display="inline" transform="matrix(1.9090869,0,0,1.9090869,217.66409,-59.66745)"/><path id="path4554-5-0" fill="none" stroke="#383838" stroke-dasharray="none" stroke-linecap="round" stroke-linejoin="round" stroke-miterlimit="4" stroke-opacity="1" stroke-width="1.488" marker-start="url(#Arrow1Mstart)" d="m 441.9818,150.12134 0,-43.90899" display="inline"/><path id="path4405-1-3-84" fill="none" stroke="#383838" stroke-dasharray="none" stroke-linecap="butt" stroke-linejoin="miter" stroke-miterlimit="4" stroke-opacity="1" stroke-width="1.015" d="m 617.61779,77.576043 0,47.727167"/><path id="path4491-4-7-6" fill="#383838" fill-opacity="1" stroke="#383838" stroke-dasharray="none" stroke-dashoffset="0" stroke-linecap="round" stroke-linejoin="round" stroke-miterlimit="4" stroke-opacity="1" stroke-width="0" d="m 120,84.862183 a 2.5,2.5 0 1 1 -5,0 2.5,2.5 0 1 1 5,0 z" display="inline" transform="matrix(1.9090869,0,0,1.9090869,370.39104,-59.66745)"/><path id="path4554-5-0-7" fill="none" stroke="#383838" stroke-dasharray="none" stroke-linecap="round" stroke-linejoin="round" stroke-miterlimit="4" stroke-opacity="1" stroke-width="1.488" marker-start="url(#Arrow1Mstart)" d="m 594.70875,150.12134 0,-43.90899" display="inline"/><path id="path4373" fill="none" stroke="#383838" stroke-dasharray="none" stroke-linecap="butt" stroke-linejoin="round" stroke-miterlimit="4" stroke-opacity="1" stroke-width="1.015" d="M 617.61779,125.30321 663.43587,79.485129"/><path id="path4554-5-2-3-8" fill="none" stroke="#383838" stroke-dasharray="none" stroke-linecap="round" stroke-linejoin="round" stroke-miterlimit="4" stroke-opacity="1" stroke-width="1.488" marker-start="url(#Arrow1Mstart)" d="m 413.34549,102.39417 -120.27247,0" display="inline"/><path id="path4491-44-0-62" fill="#383838" fill-opacity="1" stroke="#383838" stroke-dasharray="none" stroke-dashoffset="0" stroke-linecap="round" stroke-linejoin="round" stroke-miterlimit="4" stroke-opacity="1" stroke-width="0" d="m 120,84.862183 a 2.5,2.5 0 1 1 -5,0 2.5,2.5 0 1 1 5,0 z" display="inline" transform="matrix(1.9090869,0,0,1.9090869,63.982601,-59.6151)"/><path id="path4491-4-7-9" fill="#383838" fill-opacity="1" stroke="#383838" stroke-dasharray="none" stroke-dashoffset="0" stroke-linecap="round" stroke-linejoin="round" stroke-miterlimit="4" stroke-opacity="1" stroke-width="0" d="m 120,84.862183 a 2.5,2.5 0 1 1 -5,0 2.5,2.5 0 1 1 5,0 z" display="inline" transform="matrix(1.9090869,0,0,1.9090869,17.209972,-59.66744)"/><path id="path4554-5-0-2" fill="none" stroke="#383838" stroke-dasharray="none" stroke-linecap="round" stroke-linejoin="round" stroke-miterlimit="4" stroke-opacity="1" stroke-width="1.488" marker-start="url(#Arrow1Mstart)" d="M 413.34549,397.35779 251.1414,397.4626 c -5.79584,0 -9.61373,-3.99123 -9.61373,-9.88947 l 0,-281.36128" display="inline"/><path id="path4554-9-4-6" fill="none" stroke="#383838" stroke-dasharray="none" stroke-linecap="round" stroke-linejoin="round" stroke-miterlimit="4" stroke-opacity="1" stroke-width="1.488" marker-start="url(#Arrow1Mstart)" d="m 212.89137,102.39417 -62.99987,0" display="inline"/><path id="path4405-1-3-7" fill="none" stroke="#383838" stroke-dasharray="none" stroke-linecap="butt" stroke-linejoin="miter" stroke-miterlimit="4" stroke-opacity="1" stroke-width="1.015" d="m 264.43672,77.576043 0,47.727167"/><rect id="rect3794-77-9-4-4" width="47.727" height="47.727" x="417.164" y="306.666" fill="none" stroke="#383838" stroke-dasharray="none" stroke-dashoffset="0" stroke-linecap="round" stroke-linejoin="round" stroke-miterlimit="4" stroke-opacity="1" stroke-width="1.015" display="inline" rx="6.764" ry="6.764"/><rect id="rect3794-77-9-5-9" width="47.727" height="47.727" x="569.891" y="306.666" fill="none" stroke="#383838" stroke-dasharray="none" stroke-dashoffset="0" stroke-linecap="round" stroke-linejoin="round" stroke-miterlimit="4" stroke-opacity="1" stroke-width="1.015" display="inline" rx="6.764" ry="6.764"/><path id="path4554-5-2-3-85" fill="none" stroke="#383838" stroke-dasharray="none" stroke-linecap="round" stroke-linejoin="round" stroke-miterlimit="4" stroke-opacity="1" stroke-width="1.488" marker-start="url(#Arrow1Mstart)" d="m 566.07246,255.12112 -72.5453,0" display="inline"/><path id="path4491-44-0-1" fill="#383838" fill-opacity="1" stroke="#383838" stroke-dasharray="none" stroke-dashoffset="0" stroke-linecap="round" stroke-linejoin="round" stroke-miterlimit="4" stroke-opacity="1" stroke-width="0" d="m 120,84.862183 a 2.5,2.5 0 1 1 -5,0 2.5,2.5 0 1 1 5,0 z" display="inline" transform="matrix(1.9090869,0,0,1.9090869,264.43674,93.111848)"/><path id="path4491-4-7-7" fill="#383838" fill-opacity="1" stroke="#383838" stroke-dasharray="none" stroke-dashoffset="0" stroke-linecap="round" stroke-linejoin="round" stroke-miterlimit="4" stroke-opacity="1" stroke-width="0" d="m 120,84.862183 a 2.5,2.5 0 1 1 -5,0 2.5,2.5 0 1 1 5,0 z" display="inline" transform="matrix(1.9090869,0,0,1.9090869,217.66409,93.059501)"/><path id="path4554-5-0-27" fill="none" stroke="#383838" stroke-dasharray="none" stroke-linecap="round" stroke-linejoin="round" stroke-miterlimit="4" stroke-opacity="1" stroke-width="1.488" marker-start="url(#Arrow1Mstart)" d="m 441.98182,302.84829 0,-43.90899" display="inline"/><path id="path4405-1-3-84-0" fill="none" stroke="#383838" stroke-dasharray="none" stroke-linecap="butt" stroke-linejoin="miter" stroke-miterlimit="4" stroke-opacity="1" stroke-width="1.015" d="m 617.61779,230.30299 0,47.72717"/><path id="path4491-4-7-6-8" fill="#383838" fill-opacity="1" stroke="#383838" stroke-dasharray="none" stroke-dashoffset="0" stroke-linecap="round" stroke-linejoin="round" stroke-miterlimit="4" stroke-opacity="1" stroke-width="0" d="m 120,84.862183 a 2.5,2.5 0 1 1 -5,0 2.5,2.5 0 1 1 5,0 z" display="inline" transform="matrix(1.9090869,0,0,1.9090869,370.39106,93.059501)"/><path id="path4554-5-0-7-2" fill="none" stroke="#383838" stroke-dasharray="none" stroke-linecap="round" stroke-linejoin="round" stroke-miterlimit="4" stroke-opacity="1" stroke-width="1.488" marker-start="url(#Arrow1Mstart)" d="m 594.70877,302.84829 0,-43.90899" display="inline"/><path id="path4373-3" fill="none" stroke="#383838" stroke-dasharray="none" stroke-linecap="butt" stroke-linejoin="round" stroke-miterlimit="4" stroke-opacity="1" stroke-width="1.015" d="m 617.61779,278.03016 45.81808,-45.81808"/><path id="path4405-1-3-3" fill="none" stroke="#383838" stroke-dasharray="none" stroke-linecap="butt" stroke-linejoin="miter" stroke-miterlimit="4" stroke-opacity="1" stroke-width="1.015" d="m 464.89084,230.30299 0,47.72717"/><rect id="rect3794-77-9-4-42" width="47.727" height="47.727" x="417.164" y="459.393" fill="none" stroke="#383838" stroke-dasharray="none" stroke-dashoffset="0" stroke-linecap="round" stroke-linejoin="round" stroke-miterlimit="4" stroke-opacity="1" stroke-width="1.015" display="inline" rx="6.764" ry="6.764"/><rect id="rect3794-77-9-5-6" width="47.727" height="47.727" x="569.891" y="459.393" fill="none" stroke="#383838" stroke-dasharray="none" stroke-dashoffset="0" stroke-linecap="round" stroke-linejoin="round" stroke-miterlimit="4" stroke-opacity="1" stroke-width="1.015" display="inline" rx="6.764" ry="6.764"/><path id="path4554-5-2-3-7" fill="none" stroke="#383838" stroke-dasharray="none" stroke-linecap="round" stroke-linejoin="round" stroke-miterlimit="4" stroke-opacity="1" stroke-width="1.488" marker-start="url(#Arrow1Mstart)" d="m 566.07246,407.84807 -72.5453,0" display="inline"/><path id="path4491-44-0-9" fill="#383838" fill-opacity="1" stroke="#383838" stroke-dasharray="none" stroke-dashoffset="0" stroke-linecap="round" stroke-linejoin="round" stroke-miterlimit="4" stroke-opacity="1" stroke-width="0" d="m 120,84.862183 a 2.5,2.5 0 1 1 -5,0 2.5,2.5 0 1 1 5,0 z" display="inline" transform="matrix(1.9090869,0,0,1.9090869,264.43674,245.8388)"/><path id="path4491-4-7-8" fill="#383838" fill-opacity="1" stroke="#383838" stroke-dasharray="none" stroke-dashoffset="0" stroke-linecap="round" stroke-linejoin="round" stroke-miterlimit="4" stroke-opacity="1" stroke-width="0" d="m 120,84.862183 a 2.5,2.5 0 1 1 -5,0 2.5,2.5 0 1 1 5,0 z" display="inline" transform="matrix(1.9090869,0,0,1.9090869,217.66409,245.78645)"/><path id="path4554-5-0-6" fill="none" stroke="#383838" stroke-dasharray="none" stroke-linecap="round" stroke-linejoin="round" stroke-miterlimit="4" stroke-opacity="1" stroke-width="1.488" marker-start="url(#Arrow1Mstart)" d="m 441.98182,455.57524 0,-43.90899" display="inline"/><path id="path4405-1-3-84-1" fill="none" stroke="#383838" stroke-dasharray="none" stroke-linecap="butt" stroke-linejoin="miter" stroke-miterlimit="4" stroke-opacity="1" stroke-width="1.015" d="m 617.61779,383.02994 0,47.72717"/><path id="path4491-4-7-6-0" fill="#383838" fill-opacity="1" stroke="#383838" stroke-dasharray="none" stroke-dashoffset="0" stroke-linecap="round" stroke-linejoin="round" stroke-miterlimit="4" stroke-opacity="1" stroke-width="0" d="m 120,84.862183 a 2.5,2.5 0 1 1 -5,0 2.5,2.5 0 1 1 5,0 z" display="inline" transform="matrix(1.9090869,0,0,1.9090869,370.39106,245.78645)"/><path id="path4554-5-0-7-0" fill="none" stroke="#383838" stroke-dasharray="none" stroke-linecap="round" stroke-linejoin="round" stroke-miterlimit="4" stroke-opacity="1" stroke-width="1.488" marker-start="url(#Arrow1Mstart)" d="m 594.70877,455.57524 0,-43.90899" display="inline"/><path id="path4373-0" fill="none" stroke="#383838" stroke-dasharray="none" stroke-linecap="butt" stroke-linejoin="round" stroke-miterlimit="4" stroke-opacity="1" stroke-width="1.015" d="m 617.61779,430.75711 45.81808,-45.81808"/><path id="path4405-1-3-9" fill="none" stroke="#383838" stroke-dasharray="none" stroke-linecap="butt" stroke-linejoin="miter" stroke-miterlimit="4" stroke-opacity="1" stroke-width="1.015" d="m 464.89084,383.02994 0,47.72717"/><path id="path4554-9-4-6-9" fill="none" stroke="#383838" stroke-dasharray="none" stroke-linecap="round" stroke-linejoin="round" stroke-miterlimit="4" stroke-opacity="1" stroke-width="1.488" marker-start="url(#Arrow1Mstart)" d="m 413.34549,416.42926 -62.99986,0" display="inline"/></g><g id="layer3" display="inline" transform="translate(-119.1193,-74.0625)"><text font-stretch="normal" style="line-height:125%;-inkscape-font-specification:Inconsolata LGC" id="text3007-0-2" x="434.686" y="183.633" fill="#383838" fill-opacity="1" stroke="none" font-family="Inconsolata LGC" font-size="20" font-style="normal" font-variant="normal" font-weight="normal" letter-spacing="0" word-spacing="0" xml:space="preserve"><tspan style="-inkscape-font-specification:Inconsolata LGC" id="tspan3009-8-5" x="434.686" y="183.633" font-weight="normal">c</tspan></text><text font-stretch="normal" style="line-height:125%;-inkscape-font-specification:Inconsolata LGC" id="text3007-0-7" x="587.754" y="184.144" fill="#383838" fill-opacity="1" stroke="none" font-family="Inconsolata LGC" font-size="20" font-style="normal" font-variant="normal" font-weight="normal" letter-spacing="0" word-spacing="0" xml:space="preserve"><tspan style="-inkscape-font-specification:Inconsolata LGC" id="tspan3009-8-52" x="587.754" y="184.144" font-weight="normal">d</tspan></text><text font-stretch="normal" style="text-align:end;line-height:125%;-inkscape-font-specification:Inconsolata LGC" id="text4978" x="340.8" y="422.156" fill="#383838" fill-opacity="1" stroke="none" font-family="Inconsolata LGC" font-size="20" font-style="normal" font-variant="normal" font-weight="normal" letter-spacing="0" text-anchor="end" word-spacing="0" xml:space="preserve"><tspan id="tspan4980" x="340.8" y="422.156">y</tspan></text><text font-stretch="normal" style="text-align:end;line-height:125%;-inkscape-font-specification:Inconsolata LGC" id="text4974" x="140.346" y="107.235" fill="#383838" fill-opacity="1" stroke="none" font-family="Inconsolata LGC" font-size="20" font-style="normal" font-variant="normal" font-weight="normal" letter-spacing="0" text-anchor="end" word-spacing="0" xml:space="preserve"><tspan id="tspan4976" x="140.346" y="107.235">x</tspan></text><text font-stretch="normal" style="line-height:125%;-inkscape-font-specification:Inconsolata LGC" id="text3007-0-2-3" x="434.686" y="489.086" fill="#383838" fill-opacity="1" stroke="none" font-family="Inconsolata LGC" font-size="20" font-style="normal" font-variant="normal" font-weight="normal" letter-spacing="0" word-spacing="0" xml:space="preserve"><tspan style="-inkscape-font-specification:Inconsolata LGC" id="tspan3009-8-5-3" x="434.686" y="489.086" font-weight="normal">e</tspan></text><text font-stretch="normal" style="line-height:125%;-inkscape-font-specification:Inconsolata LGC" id="text3007-0-7-5" x="587.243" y="489.939" fill="#383838" fill-opacity="1" stroke="none" font-family="Inconsolata LGC" font-size="20" font-style="normal" font-variant="normal" font-weight="normal" letter-spacing="0" word-spacing="0" xml:space="preserve"><tspan style="-inkscape-font-specification:Inconsolata LGC" id="tspan3009-8-52-1" x="587.243" y="489.939" font-weight="normal">f</tspan></text><text font-stretch="normal" style="line-height:125%;-inkscape-font-specification:Inconsolata LGC" id="text3007-0-2-9" x="434.857" y="336.359" fill="#383838" fill-opacity="1" stroke="none" font-family="Inconsolata LGC" font-size="20" font-style="normal" font-variant="normal" font-weight="normal" letter-spacing="0" word-spacing="0" xml:space="preserve"><tspan style="-inkscape-font-specification:Inconsolata LGC" id="tspan3009-8-5-1" x="434.857" y="336.359" font-weight="normal">a</tspan></text><text font-stretch="normal" style="line-height:125%;-inkscape-font-specification:Inconsolata LGC" id="text3007-0-7-1" x="587.072" y="336.871" fill="#383838" fill-opacity="1" stroke="none" font-family="Inconsolata LGC" font-size="20" font-style="normal" font-variant="normal" font-weight="normal" letter-spacing="0" word-spacing="0" xml:space="preserve"><tspan style="-inkscape-font-specification:Inconsolata LGC" id="tspan3009-8-52-2" x="587.072" y="336.871" font-weight="normal">b</tspan></text></g><path id="path4405-1-3" fill="none" stroke="#383838" stroke-dasharray="none" stroke-linecap="butt" stroke-linejoin="miter" stroke-miterlimit="4" stroke-opacity="1" stroke-width="1.015" d="m 345.77154,3.513543 0,47.727167"/></svg>